<?xml version="1.0" encoding="UTF-8" standalone="no"?>
<!-- Created with Inkscape (http://www.inkscape.org/) -->

<svg
   xmlns:dc="http://purl.org/dc/elements/1.1/"
   xmlns:cc="http://creativecommons.org/ns#"
   xmlns:rdf="http://www.w3.org/1999/02/22-rdf-syntax-ns#"
   xmlns:svg="http://www.w3.org/2000/svg"
   xmlns="http://www.w3.org/2000/svg"
   xmlns:sodipodi="http://sodipodi.sourceforge.net/DTD/sodipodi-0.dtd"
   xmlns:inkscape="http://www.inkscape.org/namespaces/inkscape"
   width="1363.0615"
   height="1363.0615"
   viewBox="0 0 1325.8125 1448.9236"
   id="svg2"
   version="1.1"
   inkscape:version="0.91 r13725"
   sodipodi:docname="skel-logo.svg">
  <defs
     id="defs4" />
  <sodipodi:namedview
     id="base"
     pagecolor="#ffffff"
     bordercolor="#666666"
     borderopacity="1.0"
     inkscape:pageopacity="0.0"
     inkscape:pageshadow="2"
     inkscape:zoom="0.20370114"
     inkscape:cx="682.25898"
     inkscape:cy="446.3158"
     inkscape:document-units="px"
     inkscape:current-layer="layer1"
     showgrid="false"
     showguides="true"
     inkscape:guide-bbox="true"
     inkscape:window-width="1366"
     inkscape:window-height="711"
     inkscape:window-x="0"
     inkscape:window-y="0"
     inkscape:window-maximized="1"
     fit-margin-top="0"
     fit-margin-left="0"
     fit-margin-right="0"
     fit-margin-bottom="0" />
  <metadata
     id="metadata7">
    <rdf:RDF>
      <cc:Work
         rdf:about="">
        <dc:format>image/svg+xml</dc:format>
        <dc:type
           rdf:resource="http://purl.org/dc/dcmitype/StillImage" />
        <dc:title></dc:title>
      </cc:Work>
    </rdf:RDF>
  </metadata>
  <g
     inkscape:label="Layer 1"
     inkscape:groupmode="layer"
     id="layer1"
     transform="translate(273.98996,183.50372)">
    <circle
       r="724.46179"
       cy="540.95807"
       cx="388.91626"
       id="circle4345"
       style="opacity:1;fill:#000000;fill-opacity:1;stroke:none;stroke-width:3.18897629;stroke-linecap:round;stroke-linejoin:round;stroke-miterlimit:4;stroke-dasharray:none;stroke-dashoffset:0;stroke-opacity:1" />
    <rect
       style="opacity:1;fill:#000000;fill-opacity:1;stroke:none;stroke-width:3;stroke-linecap:round;stroke-linejoin:round;stroke-miterlimit:4;stroke-dasharray:none;stroke-dashoffset:0;stroke-opacity:1"
       id="rect4247"
       width="1448.8904"
       height="1448.8448"
       x="-335.5289"
       y="-183.46437"
       rx="40"
       ry="40" />
    <g
       id="g4231"
       transform="translate(-46.432844,-13.162191)">
      <path
         style="fill:#ffffff;fill-rule:evenodd;stroke:none;stroke-width:4.16111326px;stroke-linecap:butt;stroke-linejoin:miter;stroke-opacity:1"
         d="M 64.256698,639.56571 C 141.06724,722.54758 472.15133,604.29192 544.48965,752.34562 417.82022,675.10691 74.25323,765.29966 64.256698,639.56571 Z"
         id="path4347"
         inkscape:connector-curvature="0"
         sodipodi:nodetypes="ccc" />
      <path
         sodipodi:nodetypes="ccc"
         inkscape:connector-curvature="0"
         id="path4349"
         d="M 46.880292,457.39026 C 138.55855,588.38053 473.52662,451.16209 555.59326,656.87864 373.415,526.20061 61.649619,635.6164 46.880292,457.39026 Z"
         style="fill:#ffffff;fill-rule:evenodd;stroke:none;stroke-width:5.15482044px;stroke-linecap:butt;stroke-linejoin:miter;stroke-opacity:1" />
      <path
         style="fill:#ffffff;fill-rule:evenodd;stroke:none;stroke-width:3.3040905px;stroke-linecap:butt;stroke-linejoin:miter;stroke-opacity:1"
         d="M 176.2145,779.12274 C 246.46509,835.03638 446.94274,714.0124 521.49434,821.53876 429.73881,788.56403 199.15333,876.61323 176.2145,779.12274 Z"
         id="path4351"
         inkscape:connector-curvature="0"
         sodipodi:nodetypes="ccc" />
      <path
         sodipodi:nodetypes="ccc"
         inkscape:connector-curvature="0"
         id="path4353"
         d="m 256.78798,891.50576 c 111.47376,6.7972 218.86958,-65.25288 266.44946,-5.43776 -91.08249,-2.71888 -138.66234,59.81516 -266.44946,5.43776 z"
         style="fill:#ffffff;fill-rule:evenodd;stroke:none;stroke-width:3.13297582px;stroke-linecap:butt;stroke-linejoin:miter;stroke-opacity:1" />
      <path
         style="fill:#ffffff;fill-rule:evenodd;stroke:none;stroke-width:4.77657843px;stroke-linecap:butt;stroke-linejoin:miter;stroke-opacity:1"
         d="M 165.82085,307.79629 C 318.19662,455.48831 608.79022,351.23503 606.61412,578.90719 528.34612,402.8825 234.87966,496.71364 165.82085,307.79629 Z"
         id="path4355"
         inkscape:connector-curvature="0"
         sodipodi:nodetypes="ccc" />
      <path
         sodipodi:nodetypes="ccc"
         inkscape:connector-curvature="0"
         id="path5124"
         d="M 273.10388,172.02137 C 191.43871,244.73979 36.306804,425.01073 5.2971024,455.22111 -13.152693,374.042 178.41194,175.81365 273.10388,172.02137 Z"
         style="fill:#ffffff;fill-rule:evenodd;stroke:none;stroke-width:1.0629921px;stroke-linecap:butt;stroke-linejoin:miter;stroke-opacity:1" />
      <path
         sodipodi:nodetypes="ccc"
         inkscape:connector-curvature="0"
         id="path5126"
         d="m 275.40704,213.21296 c 125.5187,-22.99643 456.79573,34.52293 431.00807,102.8178 -51.59046,-10.18562 -368.95064,-92.47705 -431.00807,-102.8178 z"
         style="fill:#ffffff;fill-rule:evenodd;stroke:none;stroke-width:4.77657843px;stroke-linecap:butt;stroke-linejoin:miter;stroke-opacity:1" />
      <path
         style="fill:#ffffff;fill-rule:evenodd;stroke:none;stroke-width:4.77657843px;stroke-linecap:butt;stroke-linejoin:miter;stroke-opacity:1"
         d="M 866.64411,899.11384 C 807.35224,786.11713 669.79643,317.04755 742.67066,321.35318 748.29201,373.6382 858.0574,836.78949 866.64411,899.11384 Z"
         id="path5128"
         inkscape:connector-curvature="0"
         sodipodi:nodetypes="ccc" />
      <path
         sodipodi:nodetypes="ccc"
         inkscape:connector-curvature="0"
         id="path5130"
         d="m 554.18309,1209.1724 c 32.21132,-123.4755 235.78499,-437.71949 286.78,-385.48253 -31.03666,42.45054 -251.17869,333.61153 -286.78,385.48253 z"
         style="fill:#ffffff;fill-rule:evenodd;stroke:none;stroke-width:4.77657843px;stroke-linecap:butt;stroke-linejoin:miter;stroke-opacity:1" />
      <path
         style="fill:#ffffff;fill-rule:evenodd;stroke:none;stroke-width:4.77657843px;stroke-linecap:butt;stroke-linejoin:miter;stroke-opacity:1"
         d="M 625.86626,1164.9407 C 708.42488,1110.5043 885.03437,899.90369 832.30331,884.63693 809.41977,915.18219 654.46796,1128.9935 625.86626,1164.9407 Z"
         id="path5132"
         inkscape:connector-curvature="0"
         sodipodi:nodetypes="ccc" />
      <path
         sodipodi:nodetypes="ssssss"
         inkscape:connector-curvature="0"
         id="path5136"
         d="m 289.90706,132.88553 c -7.96462,-6.21782 -21.89966,-17.5341 -15.55578,-26.96336 3.82184,-5.68063 23.82853,-13.693977 34.33728,-8.063552 5.25438,2.815212 12.37084,8.830422 10.73113,15.316732 -2.65418,10.49934 4.77785,19.46375 -0.8211,25.24886 -7.41467,7.6612 -22.90041,-1.01766 -28.69153,-5.53868 z"
         style="fill:#ffffff;fill-rule:evenodd;stroke:none;stroke-width:1.0629921px;stroke-linecap:butt;stroke-linejoin:miter;stroke-opacity:1" />
      <path
         sodipodi:nodetypes="sssss"
         inkscape:connector-curvature="0"
         id="path5140"
         d="m 388.26976,10.854631 c -7.96462,-6.2178195 -21.89966,-17.5340995 -15.55578,-26.96336 3.82184,-5.68063 24.75102,-17.038008 35.25977,-11.407578 10.50876,5.630428 14.99644,24.1522985 9.33347,33.1856785 -5.66297,9.0333795 -23.24634,9.7062795 -29.03746,5.1852595 z"
         style="fill:#ffffff;fill-rule:evenodd;stroke:none;stroke-width:1.0629921px;stroke-linecap:butt;stroke-linejoin:miter;stroke-opacity:1" />
      <path
         style="fill:#ffffff;fill-rule:evenodd;stroke:none;stroke-width:1.0629921px;stroke-linecap:butt;stroke-linejoin:miter;stroke-opacity:1"
         d="m 342.74326,69.612542 c -7.96462,-6.21782 -21.89966,-17.5341 -15.55578,-26.96336 3.82184,-5.68063 23.82853,-13.693977 34.33728,-8.063552 5.25438,2.815212 12.37084,8.830422 10.73113,15.316732 -2.65418,10.49934 14.56233,24.029842 8.96338,29.814952 -7.41467,7.661199 -32.68489,-5.583752 -38.47601,-10.104772 z"
         id="path5142"
         inkscape:connector-curvature="0"
         sodipodi:nodetypes="ssssss" />
      <path
         style="fill:#ffffff;fill-rule:evenodd;stroke:none;stroke-width:3.13297582px;stroke-linecap:butt;stroke-linejoin:miter;stroke-opacity:1"
         d="m 264.1679,-71.573658 c 111.47376,6.7972 218.86958,-65.252882 266.44946,-5.43776 -91.08249,-2.71888 -138.66234,59.81516 -266.44946,5.43776 z"
         id="path5144"
         inkscape:connector-curvature="0"
         sodipodi:nodetypes="ccc" />
    </g>
  </g>
</svg>
