<?xml version="1.0" standalone="no"?>
<!DOCTYPE svg PUBLIC "-//W3C//DTD SVG 1.1//EN" "http://www.w3.org/Graphics/SVG/1.1/DTD/svg11.dtd" >
<svg xmlns="http://www.w3.org/2000/svg">
<metadata></metadata>
<defs>
<font id="kaelshipmansansmedium" horiz-adv-x="696" >
<font-face units-per-em="2048" ascent="1640" descent="-408" />
<missing-glyph horiz-adv-x="1720" />
<glyph horiz-adv-x="0" />
<glyph unicode="&#xd;" horiz-adv-x="1360" />
<glyph unicode=" "  horiz-adv-x="1720" />
<glyph unicode="&#x09;" horiz-adv-x="1720" />
<glyph unicode="&#xa0;" horiz-adv-x="1720" />
<glyph unicode="!" horiz-adv-x="424" d="M48 212q-16 84 40 172q64 112 136 76q72 -28 72 -172q0 -88 -44 -132t-124 -44q-64 16 -80 100zM116 1064q4 88 16 200t20 352t16 512q8 368 20 392t92 24q48 0 64 -24t32 -120q16 -48 12 -104t-12 -80t-20 -152t-20 -336q-16 -576 -32 -704t-48 -160q-48 -32 -104 16 q-24 24 -32 60t-4 124z" />
<glyph unicode="&#x22;" horiz-adv-x="792" d="M56 2600q8 40 56 176q40 128 44 204t-4 76t24 48q40 48 64 48t64 -40q32 -32 16 -216t-48 -208q-32 -16 -32 -72t-48 -104q-32 -24 -48 -20t-56 36t-32 72zM372 2600q4 40 52 176q40 128 48 204t0 76t24 48q40 48 60 48t68 -40q32 -32 16 -216t-56 -208q-32 -16 -28 -72 t-44 -104q-32 -24 -52 -20t-56 36t-32 72z" />
<glyph unicode="#" horiz-adv-x="1880" d="M40 384q0 64 180 120t228 56q32 0 44 36t12 148v176l-376 -40q-48 0 -68 8t-20 40q0 40 40 60q32 20 176 36q192 32 236 80q36 48 52 240q16 160 16 176h12t32 -16t32 -40t24 -76t12 -124l16 -176l112 8q112 -8 192 40q64 24 76 56q12 24 12 136q8 200 72 192 q64 0 80 -144q8 -48 0 -104l-8 -144l296 8q320 16 320 -48q0 -16 -24 -64q-32 -48 -344 -48l-312 -8l-24 -176q-32 -240 16 -240q32 -8 80 56q64 64 88 68q24 -4 48 -36q48 -56 -4 -140t-156 -116q-80 -24 -100 -56t-24 -108q-12 -76 -28 -132q-16 -64 -64 8q-32 64 -48 144 q-8 88 -24 100t-96 12t-100 -16t-20 -96q-16 -112 -56 -160t-88 0t-64 160q-16 96 -32 96q-32 16 -296 0q-80 -8 -104 4t-24 44zM656 768q-16 -152 4 -172t156 -36q128 -16 160 28t48 220l8 160l-112 8q-144 16 -196 -32t-68 -176z" />
<glyph unicode="$" horiz-adv-x="1032" d="M48 480q32 32 192 40l192 16l-8 192q24 112 32 224q8 232 -96 272q-40 16 -48 16q-24 8 -48 56t-32 128q-8 96 8 136t80 112q64 64 80 100t0 100q-16 96 0 128q24 40 72 24q48 -8 88 -72l48 -64l48 64q48 64 112 72t112 -56q48 -48 44 -72q-12 -24 -60 -88t-52 -120 t12 -200t32 -192q8 -48 56 -80t64 -216t16 -280q0 -144 -60 -264q-52 -120 -52 -248q0 -192 -80 -200q-64 -8 -80 88q-16 32 -16 64q0 48 -16 88t-40 56t-40 0q-24 -24 -28 -96t-52 -112t-96 4t-40 124q8 56 -8 68t-112 28q-64 0 -128 28t-88 68t-8 64zM568 896 q-16 -96 36 -260q52 -156 124 -140q80 32 40 384q-16 112 -100 116t-100 -100zM584 1452q8 -60 24 -76q64 -32 64 32q0 48 -16 112q-24 128 -48 128q-16 0 -24 -64t0 -132z" />
<glyph unicode="%" horiz-adv-x="1416" d="M40 892q8 76 104 196q80 112 168 120t152 -104q48 -96 40 -160t-64 -144q-80 -88 -180 -100t-164 52t-56 140zM168 172q0 20 12 36t44 48t64 68t76 96q36 60 84 124q64 112 332 452t284 364q56 80 84 100q28 28 52 -4q48 -32 40 -96t-56 -112q-112 -96 -416 -492 q-304 -404 -368 -532q-56 -112 -104 -136q-56 -24 -104 40q-24 24 -24 44zM224 904q16 -24 64 -24q56 0 56 32q-8 48 -56 64q-32 0 -48 -16q-32 -32 -16 -56zM904 260q32 164 176 292q120 104 152 96q24 -8 60 -56t60 -128t24 -160t-56 -160t-168 -128q-56 -24 -92 -20 t-84 36q-104 64 -72 228zM1064 232q8 -56 48 -56t88 64t32 96t-64 28t-80 -44q-32 -32 -24 -88z" />
<glyph unicode="&#x26;" horiz-adv-x="1200" d="M40 352q0 176 20 264t84 224q80 160 160 276t120 156t56 104t16 152q-16 96 16 252t96 276q32 72 112 120t120 52t88 -36q32 -24 48 -84t16 -204v-240l-176 -200q-8 -8 -16 -24q-128 -144 -144 -212q-16 -76 16 -332q0 -24 8 -32q24 -192 64 -184q16 0 48 48q32 56 76 60 t84 -44q16 -32 12 -68t-44 -124l-64 -144l72 -120q32 -56 80 -104t80 -68t48 -36t16 -36q0 -28 -16 -44q-32 -32 -56 -32t-80 32q-40 32 -112 112t-128 144t-64 64q-24 0 -152 -112q-112 -96 -252 -144t-196 -16q-32 16 -44 80t-12 224zM272 264q64 8 176 104 q128 96 144 176t-32 320q-40 192 -64 208t-96 -112q-48 -104 -128 -280q-160 -448 0 -416zM656 1624q48 0 108 100t60 196q0 144 -48 112q-56 -48 -120 -272q-32 -144 0 -136z" />
<glyph unicode="'" horiz-adv-x="344" d="M40 2208q8 32 56 176q40 128 44 200t-4 80t24 56q40 48 64 48t64 -48q32 -32 16 -216t-48 -208q-32 -16 -32 -76t-48 -100q-32 -24 -48 -24t-56 40t-32 72z" />
<glyph unicode="(" horiz-adv-x="712" d="M48 796q-32 468 40 1204q88 920 248 984q16 8 24 16t24 16t24 16t28 24t32 24t28 24l60 60t48 36t44 -8t24 -72q16 -64 -120 -212t-192 -264t-80 -300t-40 -584q-24 -592 -24 -736t24 -448q16 -240 40 -304t128 -184q144 -176 140 -204t-68 -60t-112 8t-144 224 q-144 272 -176 740z" />
<glyph unicode=")" horiz-adv-x="608" d="M44 -308q4 84 52 132t128 240q112 248 140 492t28 804q0 384 -12 580t-28 240l-48 132t-56 240t-56 168t-76 136t-28 152q16 40 60 44t96 -44t76 -104q32 -88 136 -440q72 -248 88 -396t24 -596q8 -464 -12 -736t-48 -376t-116 -336t-152 -448q-16 -32 -72 -36t-88 28 q-40 40 -36 124z" />
<glyph unicode="*" horiz-adv-x="864" d="M48 1320q40 72 56 72q104 -24 88 8q-104 216 -40 224q8 8 88 -64q32 -32 88 8q24 16 24 80q0 80 20 104q28 24 76 16t64 -168l16 -160l136 8q72 8 112 -8q24 0 40 -32q16 -56 -16 -108t-88 -52q-32 0 -48 -32q-24 -32 0 -72q88 -136 24 -136l-112 32q-64 16 -64 -80 q0 -48 -48 -80q-56 -48 -100 0t-44 160q0 80 -12 104q-20 24 -68 24q-96 -8 -120 0q-40 16 -56 64q-24 64 -16 88z" />
<glyph unicode="+" horiz-adv-x="672" d="M48 1168q16 48 104 72q168 40 168 152q0 64 40 128q32 64 72 48t48 -112q0 -104 80 -152t80 -116t-88 -84t-104 -88q-48 -152 -48 -160q-40 -24 -76 -8t-36 116t-32 120t-80 -20q-32 -16 -48 -16q-16 -8 -48 24q-48 48 -32 96z" />
<glyph unicode="," horiz-adv-x="320" d="M48 200q32 48 84 20t92 -124q64 -128 64 -216t-64 -216q-48 -112 -80 -128t-80 48q-32 40 -16 100t40 132t-16 216q-40 136 -24 168z" />
<glyph unicode="-" d="M48 1272q24 48 104 56q88 16 296 16q152 0 180 -12t28 -72t-40 -72q-40 -20 -232 -36q-160 -16 -224 -8t-88 32q-48 48 -24 96z" />
<glyph unicode="." horiz-adv-x="424" d="M68 128q-52 112 12 176q40 40 148 28t140 -60q32 -64 -16 -144t-128 -96q-104 -16 -156 96z" />
<glyph unicode="/" horiz-adv-x="1648" d="M40 224q-16 16 72 112t256 280q160 184 272 320l288 352q80 96 212 304t220 312q88 96 156 120t92 -40q8 -32 -48 -104t-172 -192q-124 -120 -188 -232q-112 -160 -400 -528t-448 -544q-224 -240 -312 -160z" />
<glyph unicode="0" horiz-adv-x="1032" d="M40 896q0 24 12 44t44 20t40 -16t-16 -64q-16 -56 -48 -48t-32 64zM408 320q-8 48 24 152q48 216 104 336t152 216q128 128 152 128q48 0 92 -128t60 -320q48 -608 -288 -688q-96 -24 -148 12t-100 148q-40 96 -48 144zM644 456q-12 -200 20 -208q56 -8 108 124t52 300 q-8 240 -40 240t-96 -160q-32 -96 -44 -296z" />
<glyph unicode="1" horiz-adv-x="312" d="M40 112q-8 64 24 184q56 184 24 384q-8 48 8 136q16 120 56 240q16 48 48 40t64 -64q32 -64 -4 -508t-84 -492q-32 -32 -48 -32t-48 32t-40 80z" />
<glyph unicode="2" horiz-adv-x="736" d="M132 952q20 48 116 80q240 88 312 24q64 -64 0 -288l-160 -496q-8 -32 8 -48h88q112 0 168 -52q56 -44 24 -108q-16 -32 -72 -48t-200 -16q-216 0 -264 56q-72 72 168 536q128 264 104 288q-16 16 -116 -20t-148 -4q-48 48 -28 96z" />
<glyph unicode="3" horiz-adv-x="784" d="M40 72q0 64 52 100t196 36l160 16v128q8 128 -56 192q-80 64 -64 132t68 116t100 92t32 60t-40 0t-68 -40t-76 -16q-56 24 -48 92t72 92q80 32 192 28t144 -36q120 -120 -88 -296l-136 -96l64 -112q64 -112 80 -208q0 -96 -104 -236q-104 -132 -152 -116t-192 16 q-88 0 -112 8t-24 48z" />
<glyph unicode="4" horiz-adv-x="672" d="M48 656q-16 112 16 272t64 168q48 16 96 -44t24 -124q-8 -64 8 -96q24 -16 80 40t56 96q0 48 36 108t84 52q40 -8 44 -64t4 -136t48 -112q32 -40 32 -68t-64 -84q-72 -80 -100 -172t12 -140t0 -196q-40 -140 -104 -172q-96 -48 -96 48q-16 64 0 272q32 304 16 328 t-72 -24t-116 -32q-52 16 -68 80z" />
<glyph unicode="5" horiz-adv-x="872" d="M48 160q16 32 48 36t72 -8t100 -4t108 56q72 80 72 112q0 48 -36 56t-84 -24q-40 -24 -72 -20t-48 36t-32 96q-16 72 -16 176l-16 360l200 56q208 56 256 88q136 88 208 -8q48 -64 0 -120q-40 -24 -88 -24q-80 0 -128 -32q-104 -64 -144 -80q-96 -48 -48 -200 q8 -24 48 -40t84 -24t76 -64t32 -160q0 -232 -200 -360q-152 -96 -312 -40q-112 40 -80 136z" />
<glyph unicode="6" horiz-adv-x="536" d="M68 376q36 264 92 392l32 96t28 72t24 56t20 40t16 28t16 24l24 12t24 0t24 0q64 -8 80 -80q8 -40 -32 -120l-80 -160q-64 -152 -96 -360q0 -8 112 -24q64 -8 88 -28t48 -84q16 -64 8 -80q-16 -32 -80 -80q-88 -64 -188 -72t-148 48t-12 320zM232 184q0 -32 72 -32 q24 0 36 12t24 32t12 36l-16 16h-96q-32 -32 -32 -64z" />
<glyph unicode="7" d="M48 1072q16 32 288 24t312 -40q32 -32 -44 -208t-164 -352t-136 -304q-32 -96 -56 -140t-64 -52q-144 -16 -48 216l48 120l32 64q0 16 64 160t68 264t-116 120q-96 0 -156 40t-28 88z" />
<glyph unicode="8" horiz-adv-x="640" d="M48 72q-16 40 40 168q56 136 80 328q8 72 -40 152q-64 96 -60 160t76 144q64 64 120 80t80 -8t64 -52t72 -28q48 0 88 -56t40 -128q0 -48 -96 -160t-20 -336t-20 -280q-96 -80 -248 -68t-176 84zM248 256q0 -32 28 -56t60 -24q24 0 44 32t20 56l-16 88l-48 16h-8 q-16 0 -48 -48t-32 -64zM256 800q32 -64 56 -64t72 48q24 32 20 48t-44 64q-48 48 -60 48t-44 -32q-32 -48 0 -112z" />
<glyph unicode="9" horiz-adv-x="576" d="M52 864q36 112 148 176q80 48 164 40t132 -56q40 -48 44 -96t-20 -216q-72 -488 0 -552q16 -16 20 -80t-24 -96q-36 -32 -116 24q-32 24 -44 84t-12 220l-8 264h-96q-112 0 -168 88t-20 200zM248 824q-8 -24 8 -40t44 4t36 44t-8 40t-44 -4t-36 -44z" />
<glyph unicode=":" horiz-adv-x="440" d="M48 928q-32 48 24 136t152 88t128 -48t-8 -144q-24 -48 -56 -64t-96 -16q-112 0 -144 48zM112 96q32 104 84 136t96 12t76 -68q32 -56 32 -84t-32 -76q-48 -64 -120 -80t-112 32t-24 128z" />
<glyph unicode=";" horiz-adv-x="424" d="M48 1076q0 36 48 92q48 48 112 52t128 -52q48 -48 48 -80t-48 -96q-48 -48 -116 -48t-124 48q-48 48 -48 84zM52 -484q-20 52 44 180q56 128 60 200t-44 164t-32 132q16 56 104 44t128 -84q32 -48 36 -108t-4 -172q-56 -400 -200 -408q-80 0 -92 52z" />
<glyph unicode="&#x3c;" horiz-adv-x="1040" d="M40 304q0 32 20 56t52 48t112 88t168 152q176 184 216 184q32 0 112 96t128 88q64 -16 80 -84t-48 -92q-56 -16 -288 -228t-232 -244q8 -32 280 0q216 16 288 -8t72 -104q0 -128 -160 -64q-88 32 -392 0q-256 -32 -332 -12t-76 124z" />
<glyph unicode="=" horiz-adv-x="776" d="M48 456q32 32 320 24l288 -8v-88q0 -96 -40 -96t-240 8q-104 0 -188 24t-120 64t-20 72zM48 720q-8 56 16 72t168 40q232 40 336 36t136 -36q88 -112 -128 -160q-128 -24 -400 -32q-88 0 -108 12t-20 68z" />
<glyph unicode="&#x3e;" horiz-adv-x="928" d="M48 1008q32 48 136 24t248 -88l312 -168q96 -48 128 -96t12 -84t-72 -52t-108 -16q-136 0 -252 -56t-180 -112t-112 -92q-48 -44 -64 -12q-32 32 -8 152t72 136q32 8 128 60t136 52q88 0 40 56q-32 48 -128 96q-144 72 -192 72t-80 48t-16 80z" />
<glyph unicode="?" horiz-adv-x="736" d="M56 1968q-40 64 72 176q16 24 48 40q112 88 180 96q60 8 172 -56t144 -144t16 -240q-32 -336 -248 -560q-64 -64 -84 -112t-20 -176t-12 -164t-52 -44q-64 -16 -104 48q-40 48 -40 236t32 212q48 32 168 232t152 280q32 96 0 184t-88 88q-48 0 -144 -72 q-144 -104 -192 -24zM72 256q56 128 128 104t104 -184q16 -64 8 -96t-40 -56q-120 -88 -192 0t-8 232z" />
<glyph unicode="@" horiz-adv-x="1456" d="M48 392q-16 56 0 232q16 256 64 388t160 260q112 120 208 176t240 88l56 16t72 16t76 -8t104 -28t112 -64q60 -44 140 -116l144 -136l-16 -320q-8 -128 -16 -192t-28 -124t-40 -80t-76 -44t-112 -24h-160q-240 0 -336 32t-96 136q0 88 100 224t164 136t192 -80 q96 -56 112 -84q24 -28 8 -92q-16 -56 -8 -76t32 -20q48 8 92 156t52 292q0 192 -208 280q-240 112 -488 -8q-240 -120 -344 -424q-88 -248 -24 -432t256 -264q128 -48 312 -44q184 -4 264 60q56 48 84 52t60 -20q112 -96 -32 -176t-432 -80q-176 0 -248 16t-168 80 q-144 96 -208 176q-48 64 -64 120zM784 656q16 -16 52 0t60 40t16 40q-16 32 -40 32q-32 0 -68 -48t-20 -64z" />
<glyph unicode="A" horiz-adv-x="1160" d="M112 568q-12 9 -12 45q0 64 36 215q56 228 136 452q56 144 172 580t148 540l80 288q16 32 64 32t64 -32t24 -368t24 -800t80 -720q48 -240 48 -376q0 -80 12 -144t24 -92t12 -52t-24 -56q-23 -30 -43 -30q-44 0 -77 142q-16 64 -16 144q-32 368 -68 504q-28 136 -92 152 q-80 32 -160 32t-96 48q-19 51 -37 51q-27 0 -51 -115q0 -16 -8 -48q-48 -320 -160 -400q-21 -14 -40 -14q-22 0 -40 22zM440 1248q16 -32 120 -48l128 -32q32 -11 46 -11q7 0 10 3t3 15q0 25 -11 89q-16 96 -28 296t-24 328t-28 128t-32 -48t-56 -180t-56 -220 q-74 -230 -74 -300q0 -13 2 -20z" />
<glyph unicode="B" horiz-adv-x="976" d="M132 380q-1 7 -1 17q0 38 13 115q32 160 64 928q16 336 24 532t24 368t32 252t40 144t48 88t72 40q78 36 140 36q104 0 164 -100q60 -105 60 -239v-17q-12 -144 -92 -384l-88 -280l72 -72q216 -201 217 -536q0 -12 -1 -24q0 -240 -52 -392t-196 -336q-120 -160 -196 -252 t-132 -152t-88 -72q-14 -5 -26 -5q-16 0 -30 9q-22 22 -22 44q0 18 14 36q48 64 392 496q144 176 172 440q7 64 7 125q0 193 -67 363q-32 64 -56 80q-32 16 -112 16q-64 0 -88 8t-28 48q-1 6 -1 12q0 38 21 100q32 72 80 200q128 288 152 408q10 51 10 96q0 59 -18 104 q-32 72 -88 80q-7 1 -13 1q-49 0 -95 -53q-52 -60 -76 -156q-16 -64 -36 -880q-12 -816 -44 -960q-21 -117 -22 -199q0 -41 6 -73q4 -18 4 -33q0 -46 -36 -67q-15 -9 -29 -9l-67 45q-24 24 -28 60z" />
<glyph unicode="C" horiz-adv-x="976" d="M96 608l32 384q16 192 48 360t80 300t76 208t88 196l76 152q96 224 160 304q48 56 112 64q11 1 20 1q49 0 76 -33q5 -5 5 -14q0 -24 -29 -82q-40 -80 -160 -304t-232 -480q-64 -136 -124 -504q-40 -275 -40 -415q0 -43 4 -73q16 -128 112 -264t184 -152q96 -16 152 -80 q32 -40 36 -60t-28 -52t-60 -32t-100 24q-144 48 -220 120t-164 232z" />
<glyph unicode="D" horiz-adv-x="1112" d="M44 1240q-2 84 -2 172t2 180q4 184 20 312q32 176 56 220q24 52 88 84q112 48 128 80q20 30 109 30q52 0 127 -10q212 -20 292 -84q128 -96 168 -216t40 -416q0 -400 -112 -676t-424 -644q-160 -192 -208 -228q-46 -29 -108 -29q-14 0 -28 1l-112 8v336q0 192 -16 452 t-20 428zM220 972q20 -708 52 -728q5 -3 11 -3q34 0 109 91q88 108 152 236t128 192q112 128 200 460q65 243 65 407q0 60 -9 109q-16 136 -56 212t-124 140t-236 64q-144 0 -208 -64t-80 -232q-13 -96 -13 -350q0 -212 9 -534z" />
<glyph unicode="E" horiz-adv-x="1128" d="M48 240v704q16 1360 104 1472q24 27 104 27q110 0 328 -51q58 -10 106 -11q64 0 110 19q50 28 92 28q52 0 92 -44q23 -26 23 -54q0 -40 -47 -82q-93 -67 -221 -67q-102 0 -227 43q-106 29 -159 29q-36 0 -49 -13q-48 -48 -72 -384v-144q-10 -185 -10 -294q0 -145 18 -154 h48q128 37 204 37q57 0 84 -21q48 -32 48 -64t-76 -68q-76 -44 -188 -60l-136 -16l-16 -288q-8 -144 -8 -256t8 -192q8 -96 20 -120t44 -8q48 16 384 32q84 4 152 4q204 0 264 -36q21 -27 21 -52q0 -12 -5 -24q-16 -36 -80 -60t-152 -24q-152 0 -416 -24q-149 -14 -226 -14 q-51 0 -70 6q-88 32 -96 224z" />
<glyph unicode="F" horiz-adv-x="840" d="M40 168q0 24 56 568q0 32 8 64q0 16 44 352t44 720q8 400 40 448q16 16 48 24q152 24 424 24q307 -7 307 -101q0 -9 -3 -19q0 -8 -16 -24q-32 -48 -160 -56q-43 -3 -84 -3q-82 0 -156 11q-28 4 -53 4q-75 0 -123 -36q-48 -32 -48 -336v-288h152q96 0 124 -8t44 -40 q3 -10 3 -19q0 -37 -51 -69q-64 -40 -176 -48q-96 -8 -120 -40t-56 -464q-16 -272 -40 -388q-24 -124 -80 -236q-69 -151 -101 -151q-27 0 -27 111z" />
<glyph unicode="G" horiz-adv-x="1056" d="M56 608q-18 191 -18 357q0 518 170 803q128 200 320 392q132 121 204 121q32 0 52 -25q1 -2 1 -5q0 -21 -53 -99q-60 -88 -156 -184q-192 -224 -256 -392t-88 -496q-9 -137 -9 -253q0 -417 113 -555q80 -96 164 -96q76 0 188 112q93 93 93 135q0 16 -13 25q-8 8 -24 8 t-40 -8q-10 -3 -21 -3q-40 0 -91 47q-47 49 -47 88q0 15 7 28q15 44 156 44h24h19q149 0 209 -60q62 -49 62 -132q0 -24 -6 -52q-24 -120 -152 -248q-168 -160 -348 -160t-340 160q-64 64 -84 136t-36 312z" />
<glyph unicode="H" horiz-adv-x="808" d="M48 16q-4 8 -4 46t4 106q8 136 28 536t20 912q0 784 32 848q7 14 22 14q19 0 50 -22q48 -32 52 -636t20 -620t48 0t104 56t104 48q48 24 64 80t16 352q0 544 80 752q0 1 1 1q17 0 79 -2161q0 -88 -8 -112t-56 -24q-72 0 -72 48q-40 840 -104 856q-14 10 -44 10 q-40 0 -108 -18q-72 -16 -92 -40t-20 -88q-40 -864 -64 -928q-16 -32 -76 -40q-12 -2 -22 -2q-41 0 -54 26z" />
<glyph unicode="I" horiz-adv-x="712" d="M40 96q-1 7 -1 13q0 61 73 83l16 8q32 8 48 64q16 80 80 848q16 168 16 280l48 736l-144 112l72 64q56 48 196 56q28 2 53 2q99 0 143 -26q36 -24 36 -57q0 -11 -4 -23q-16 -48 -80 -80l-96 -48l-16 -592q-16 -600 -40 -720q-32 -192 -36 -376v-32q0 -155 36 -184 q42 -38 42 -77q0 -42 -50 -83q-85 -57 -209 -57q-15 0 -31 1q-88 8 -116 24t-36 64z" />
<glyph unicode="J" horiz-adv-x="928" d="M40 288q0 64 48 128q32 48 44 48t60 -48q64 -64 72 -120t48 -72q13 -5 27 -5q53 0 113 73q76 92 124 252q96 288 120 496q14 125 14 313q0 125 -6 279q-5 160 -5 277q0 235 21 299q36 78 63 78q45 0 65 -214q16 -168 32 -424q8 -168 8 -295t-8 -213q-16 -172 -64 -468 q-32 -176 -120 -352t-184 -256q-48 -48 -88 -64q-20 -8 -46 -8t-58 8q-96 16 -188 112t-92 176z" />
<glyph unicode="K" horiz-adv-x="880" d="M48 48q-3 10 -3 65q0 220 51 1167q0 32 8 64q40 744 64 968t56 312q35 83 62 83q10 0 18 -11q24 -24 28 -156q1 -44 1 -92q0 -97 -5 -212q-8 -172 -16 -340t-8 -280t16 -112q32 0 32 32q0 24 72 212t136 348q80 192 104 368q8 96 52 152q25 39 56 39q13 0 28 -7 q34 -26 34 -112q0 -75 -26 -196q-56 -260 -216 -636l-144 -336l40 -232q24 -152 64 -376q40 -232 72 -376q18 -110 18 -174q0 -48 -10 -70q-16 -39 -55 -39q-21 0 -49 11q-64 16 -100 148q-44 140 -60 460q-24 336 -48 336t-24 -16l-28 -120q-28 -120 -44 -296t-16 -320 q5 -59 6 -106q0 -94 -22 -142q-22 -50 -67 -50q-20 0 -45 10q-32 16 -32 32z" />
<glyph unicode="L" horiz-adv-x="776" d="M40 240q-3 21 -3 60q0 76 11 220q8 72 28 596t56 928t108 500q32 32 56 32t40 -32q4 -8 4 -50q0 -128 -36 -566q-32 -400 -48 -940q-5 -180 -5 -305q0 -251 21 -283q6 -6 39 -7q49 0 157 15q77 10 130 10q71 0 98 -18q38 -38 38 -84q0 -12 -2 -24q-12 -52 -76 -84 q-96 -40 -192 -84t-132 -60t-80 -32q-29 -11 -46 -11q-8 0 -14 3q-16 8 -40 24t-56 64q-48 64 -56 128z" />
<glyph unicode="M" horiz-adv-x="1456" d="M90 118q-46 18 -46 122q0 144 88 452q94 344 159 764t96 680t51 292q12 20 30 20q5 0 11 -2q25 -8 103 -62q80 -56 80 -107q0 -9 -2 -17q-21 -66 -21 -352q0 -177 8 -438q21 -684 53 -684q12 0 31 76t54 252t63 300q144 614 168 872q12 110 53 147q17 16 38 16 q28 0 61 -29q28 -24 38 -147t12 -330t10 -450t45 -567t103 -618q42 -186 42 -244v-9q-4 -51 -62 -59q-10 -2 -20 -2q-59 0 -90 64q-50 94 -105 446t-71 676q-22 410 -50 410t-28 -90q0 -70 -45 -312q-38 -205 -38 -262q0 -10 1 -16q3 -7 3 -25q0 -82 -61 -381 q-78 -402 -160 -414h-5q-34 0 -81 50q-40 36 -55 143t-27 467q-20 544 -58 548q-16 0 -36 -118q-4 -34 -78 -320t-86 -480q-12 -192 -49 -251q-21 -34 -57 -34q-27 0 -62 19q-4 0 -8 4z" />
<glyph unicode="N" horiz-adv-x="1432" d="M152 140q-9 20 -9 41q0 35 25 75q40 64 40 144q0 64 88 744t136 904q32 176 32 272q0 104 32 132q16 14 34 14t38 -14q40 -36 56 -68q16 -56 56 -380t88 -468q40 -176 92 -440t52 -320q0 -48 40 -140t56 -92q48 0 168 1656q0 88 44 92h4q41 0 72 -76q16 -32 16 -104v-32 q0 -64 -8 -160q-8 -128 -20 -272t-28 -400t-24 -528q-24 -600 -72 -680q-25 -44 -74 -44q-14 0 -30 4q-48 0 -80 76q-32 84 -104 308q-96 304 -168 624t-104 472q-24 152 -40 152t-72 -324q-56 -316 -80 -540q-16 -240 -56 -448q-24 -128 -44 -168t-68 -56q-9 -1 -16 -1 q-51 0 -72 45z" />
<glyph unicode="O" horiz-adv-x="1224" d="M144 1024v128q8 392 76 612t292 532l96 136l128 -96q128 -96 224 -312q72 -160 84 -260t12 -532q0 -520 -40 -720t-200 -368q-88 -96 -128 -120q-24 -14 -57 -14q-22 0 -47 6q-80 16 -172 100q-92 76 -124 156q-16 48 -48 96t-52 88t-36 216q-11 91 -11 217q0 63 3 135z M336 640q16 -88 80 -216q88 -168 136 -184q16 0 24 -8q48 8 120 88q88 96 152 288q64 168 72 272t8 416q0 384 -32 540q-32 164 -128 276q-64 80 -84 88q-3 1 -6 1q-19 0 -46 -41q-48 -56 -132 -232q-84 -168 -124 -296t-40 -584v-152v-256z" />
<glyph unicode="P" horiz-adv-x="952" d="M128 2088l160 152q112 112 160 136t168 24q144 0 212 -56t116 -216q46 -132 46 -250q0 -169 -94 -310q-104 -160 -228 -272q-116 -105 -165 -105q-4 0 -7 1q-73 15 -73 67q0 63 105 181q16 32 80 96q112 120 128 152q32 64 32 232t-32 232q-28 57 -107 57q-10 0 -21 -1 q-96 -16 -192 -96l-104 -80l8 -272q8 -208 12 -316t12 -256t8 -532q1 -87 1 -162q0 -452 -41 -486q-8 -8 -19 -8q-21 0 -53 32t-48 208q-16 192 -48 1280z" />
<glyph unicode="Q" horiz-adv-x="1192" d="M132 964v47q0 560 92 821q48 128 112 240t104 180t40 100q0 96 64 96q24 0 204 -300q180 -308 228 -436q56 -144 68 -568q2 -85 2 -161q0 -303 -38 -463l-48 -184l80 -80q80 -72 80 -144q-16 -64 -84 -80q-14 -3 -26 -3q-56 0 -82 59q-30 60 -60 60h-4q-32 -4 -80 -60 q-48 -64 -176 -88q-40 -8 -70 -8t-50 8q-40 16 -104 72q-96 96 -96 132t-48 76q-104 88 -108 684zM328 692q40 -324 152 -420q48 -41 105 -41q9 0 19 1q68 8 84 64q4 14 4 28q0 42 -36 84q-47 47 -47 87q0 15 7 29q24 52 120 52q72 0 100 28t52 152t24 404q0 312 -36 472 t-164 352q-32 48 -68 80t-52 32t-48 -32t-64 -88q-112 -208 -152 -580q-20 -186 -20 -362t20 -342z" />
<glyph unicode="R" horiz-adv-x="1176" d="M132 880q-9 263 -9 464q0 459 45 592q40 112 184 208q133 89 235 88h17q116 -8 244 -104q136 -104 180 -204t44 -276q0 -144 -20 -184q-28 -40 -156 -168l-176 -168l96 -120q168 -192 308 -528q96 -231 96 -329q0 -45 -20 -63q-17 -15 -36 -15q-71 0 -172 215 q-16 48 -40 112q-64 192 -204 392t-252 272q-80 48 -80 84t176 148q152 96 228 192t80 176v18q0 70 -28 134q-32 72 -84 120t-100 72q-38 19 -86 19q-71 0 -162 -43q-101 -47 -101 -86q0 -14 13 -26q13 -13 13 -38q0 -38 -29 -106q-48 -104 -48 -524t32 -804q9 -110 9 -189 q0 -199 -57 -211h-48q-64 24 -92 880z" />
<glyph unicode="S" horiz-adv-x="648" d="M88 164q8 76 88 148q112 112 144 240q21 85 21 256q0 85 -5 192q-16 368 -56 480q-30 116 -30 271q0 90 10 193q28 280 124 424q23 38 49 38q29 0 63 -46q13 -19 13 -63q0 -65 -29 -185q-32 -128 -44 -216q-1 -18 0 -40q0 -88 12 -248q32 -304 64 -480q29 -125 28 -264 q0 -93 -12 -192q-32 -248 -136 -424q-96 -160 -156 -204q-31 -23 -60 -23q-26 0 -48 19q-44 37 -44 92q0 15 4 32z" />
<glyph unicode="T" horiz-adv-x="992" d="M112 2160q0 80 96 108t368 60q384 32 400 48q18 15 41 15q40 0 95 -43q88 -68 88 -132q0 -48 -40 -60t-168 -12q-192 -8 -232 -56q-24 -32 -48 -1028t-40 -1012q-14 -28 -54 -28h-10h-10q-40 0 -54 28q-18 96 -18 311q0 72 2 157q8 340 24 804q11 315 11 455q0 70 -3 97 l-16 176l-96 -8q-80 0 -208 36t-128 84z" />
<glyph unicode="U" horiz-adv-x="1144" d="M132 1220q-1 105 -1 197q0 369 13 535q16 208 112 288q21 16 37 16q32 0 43 -64v-80q-11 -208 -11 -496q0 -144 3 -308q8 -492 24 -636q48 -384 176 -448q14 -5 30 -5q55 0 126 65q92 84 132 212q32 112 64 560t32 880q8 312 32 344q24 40 52 40t60 -40q16 -21 16 -140 q0 -60 -4 -144q-12 -252 -28 -556q-8 -152 -8 -304t8 -304q11 -149 11 -231q0 -41 -3 -65q-8 -72 -56 -200q-112 -240 -288 -296q-47 -15 -95 -15l-257 111q-80 72 -104 120t-40 176q-24 176 -48 232q-24 40 -28 556z" />
<glyph unicode="V" horiz-adv-x="1048" d="M124 2152q13 32 46 32q16 0 38 -8q48 -16 96 -112q32 -80 76 -408t68 -600q15 -241 51 -241q2 0 5 1q24 8 40 80q32 152 136 480t176 504q24 88 72 200q48 120 68 144q15 18 32 18q6 0 12 -2q48 -16 48 -136t-32 -192q-80 -128 -208 -560q-128 -424 -240 -952 q-64 -368 -128 -384q-5 -2 -11 -2q-23 0 -61 26q-48 24 -48 264q0 192 -32 344q-24 152 -40 360q-32 448 -152 984q-20 69 -20 114q0 28 8 46z" />
<glyph unicode="W" horiz-adv-x="1824" d="M68 1884q-6 34 -6 59t6 41q12 32 44 48q16 6 30 6q150 0 194 -598q16 -160 96 -416t80 -296q0 -72 16 -72q48 16 112 256q48 224 80 256q27 33 59 33q6 0 13 -1q40 -8 88 -68t64 -132q16 -88 64 -192t88 -172q32 -55 49 -55q4 0 7 3q24 24 76 216t164 572t256 748 q15 44 53 44h7q44 -4 80 -48q15 -19 15 -46q0 -36 -27 -86q-112 -224 -224 -644t-192 -736t-144 -380q-40 -32 -60 -32t-60 24q-32 32 -132 232q-100 192 -100 240q0 32 -48 32t-80 -264q-48 -352 -112 -424q-29 -29 -63 -29q-23 0 -49 13q-64 32 -96 272q-48 368 -76 500 t-64 244t-68 288q-24 112 -56 236t-52 192t-32 136z" />
<glyph unicode="X" horiz-adv-x="928" d="M140 96q4 32 52 128q64 144 64 232q0 48 52 156t92 308q32 128 40 188q4 30 4 54t-4 42q-8 36 -44 160t-68 268l-104 448q-16 104 -32 168t-24 104t-8 52t16 12q88 0 156 -128t100 -336q16 -144 52 -256q44 -112 60 -112t36 96t56 240t84 240q80 144 80 176t40 72t80 40 t60 -64q13 -30 13 -55q0 -28 -17 -49q-32 -48 -104 -236t-112 -348l-96 -352q-17 -73 -17 -153q0 -70 13 -147q28 -164 172 -628q48 -144 52 -184v-9q0 -35 -28 -63q-26 -26 -54 -26q-7 0 -14 2q-36 8 -60 56t-40 144q-16 128 -64 224t-80 96q-48 0 -160 -408 q-48 -184 -100 -232q-22 -21 -47 -21q-33 0 -69 37q-28 28 -28 57v7z" />
<glyph unicode="Y" horiz-adv-x="1144" d="M112 2064q16 16 40 16q32 0 244 -240t236 -240q16 8 48 60t76 124t92 128q80 104 136 184q45 68 102 68h6q60 -4 68 -76q0 -48 -44 -100t-124 -148t-128 -192q-80 -160 -112 -192q-48 -56 -92 -500q-32 -326 -32 -529q0 -73 4 -131l16 -296h-80q-72 0 -88 40 q-29 82 -29 396q0 210 13 524l16 464l-96 144q-96 144 -208 280q-93 108 -93 166q0 33 29 50z" />
<glyph unicode="Z" horiz-adv-x="1120" d="M64 40q-20 27 -20 82q0 124 100 390l432 1144q160 392 160 408t-224 16t-240 24q-11 17 -11 33q0 30 39 59q60 44 172 44q152 0 200 28t152 28t168 -32q32 -16 48 -32t12 -44t-16 -56t-44 -80t-64 -112t-80 -160t-96 -204l-176 -392q-64 -144 -116 -296t-52 -184 t-76 -216q-63 -152 -63 -195q0 -9 3 -13q14 -28 101 -28h23q108 4 128 36t96 32t96 -36t140 -36q104 0 168 -52q51 -42 51 -101q0 -15 -3 -31q0 -32 -32 -40t-136 -16q-104 0 -164 16t-80 20q-3 1 -9 1q-34 0 -171 -21q-158 -32 -258 -32q-123 0 -158 48z" />
<glyph unicode="[" horiz-adv-x="760" d="M40 616q16 968 32 1000q8 16 24 832q16 528 32 576q40 80 252 56t308 -120q32 -32 32 -48t-32 -48t-56 -32t-48 16t-72 40t-112 40q-48 16 -72 8t-40 -56t-48 -600q-48 -592 -32 -1544q0 -192 12 -296t40 -160t76 -56t124 48t96 48t64 -40t36 -64t-88 -88 q-96 -72 -216 -96t-196 -16t-92 16q-32 24 -24 584z" />
<glyph unicode="\" horiz-adv-x="1024" d="M120 2696q-88 184 16 360q40 64 104 -16l112 -320q96 -224 280 -1216q8 -56 280 -1312q8 -48 0 -104q-16 -40 -48 -40q-48 -8 -72 4t-40 68t-40 160t-80 280q-144 720 -352 1632q-64 320 -160 504z" />
<glyph unicode="]" horiz-adv-x="888" d="M48 64q-16 32 4 64t76 64t112 32q112 0 144 48q48 64 96 1040t56 1032q24 120 40 392l16 280h-208q-208 0 -236 52t4 100q48 48 356 32t340 -40q32 -32 -32 -200q-64 -232 -100 -1164t-72 -1292t-116 -472q-24 -32 -228 -24t-252 56z" />
<glyph unicode="a" horiz-adv-x="888" d="M124 328q12 56 100 152q72 80 108 92q20 11 56 11q29 0 68 -7q176 -32 220 -64t44 -128q0 -64 8 -136t16 -104t8 -68t-8 -52q-8 -8 -40 -24q-16 -5 -34 -5q-36 0 -78 21q-32 16 -72 16t-88 -16q-60 -16 -109 -16t-87 16q-76 32 -100 128q-16 85 -16 139q0 26 4 45z M360 248q8 -8 24 -8q32 0 76 60q28 39 28 63q0 13 -8 21q-21 18 -42 18l-70 -50q-26 -44 -26 -71q0 -22 18 -33z" />
<glyph unicode="b" horiz-adv-x="784" d="M128 128l32 512q24 336 52 792t44 704t24 264q24 32 72 32q48 -8 72 -156q10 -63 10 -123q0 -80 -18 -153q-32 -112 -48 -768q-6 -237 -6 -384q0 -221 14 -240q8 -16 40 -24q64 0 144 -64q48 -32 64 -76t16 -132t-16 -136t-72 -104q-88 -88 -164 -88t-172 64zM352 280 q0 -41 35 -41q6 0 13 1q32 8 48 48q0 16 -8 32t-32 16t-40 -16t-16 -40z" />
<glyph unicode="c" horiz-adv-x="752" d="M120 184q-29 61 -29 124q0 124 117 252q64 72 176 72q124 -17 124 -80q0 -57 -116 -88q-64 -24 -84 -52t-20 -84q0 -64 20 -80q12 -16 140 -24q192 -16 208 -96q0 -64 -144 -104q-48 -16 -112 -16q-136 0 -184 28t-96 148z" />
<glyph unicode="d" horiz-adv-x="1000" d="M128 272q8 112 96 192q56 56 104 76q56 20 136 20q112 0 128 16t48 120q64 240 88 628t32 688t8 308q0 11 11 11q5 0 13 -3q24 -8 60 -24t52 -32q22 -27 22 -61q0 -27 -14 -59q-32 -56 -56 -720t-48 -792q-11 -69 -11 -165q0 -48 3 -103q8 -164 20 -252q5 -38 5 -68 q0 -40 -9 -68q-25 -31 -54 -31q-9 0 -18 3q-40 12 -56 60t-72 64q-16 5 -29 5q-33 0 -50.5 -29t-89.5 -29q-29 0 -67 5q-140 16 -188 64q-65 58 -65 154q0 11 1 22zM352 264q16 -16 38 -16t50 16q56 32 72 88q3 10 3 17q0 31 -51 31q-80 0 -112 -56q-16 -20 -16 -40t16 -40z " />
<glyph unicode="e" horiz-adv-x="960" d="M112 352q0 96 44 212t108 188q72 96 160 100q88 -4 248 -68q144 -64 168 -144q6 -25 6 -47q0 -62 -50 -97q-60 -48 -252 -48q-176 0 -216 -40q-12 -12 -12 -30q0 -40 60 -106q48 -56 80 -68q14 -5 42 -5q38 0 102 9q64 11 101 11q19 0 31 -3q36 -8 44 -48q7 -18 7 -35 q0 -42 -43 -73q-68 -44 -196 -60q-56 -8 -94 -8t-58 8q-40 16 -136 128q-144 144 -144 224zM432 640q0 -40 16 -44q2 -1 5 -1q18 0 59 21q48 24 48 48t-64 24q-32 0 -48 -12q-16 -20 -16 -36z" />
<glyph unicode="f" horiz-adv-x="768" d="M128 1024q0 48 28 72q20 24 100 40l128 40l32 256q16 144 32 272t28 184q7 34 7 53q0 13 -3 19q-4 8 -4 26q0 53 36 194q48 188 80 220q48 36 110 36q20 0 42 -4q88 -16 168 -80q64 -48 80 -88q8 -20 8 -46t-8 -58q-16 -96 -60 -140q-36 -25 -70 -25q-15 0 -30 5 q-41 14 -41 57q0 7 1 15q8 56 20 104v10q0 42 -28 70q-14 10 -27 10q-49 0 -93 -138q-40 -96 -56 -240q-64 -416 -68 -536q-2 -24 -2 -46q0 -87 38 -138q32 -64 36 -84v-5q0 -29 -36 -87q-48 -72 -56 -292t-16 -420t-48 -240q-30 -33 -53 -33q-36 0 -51 89q-16 96 -24 344 q-3 125 -3 214q0 178 11 210q8 24 -12 36t-84 28q-64 8 -88 28t-24 68z" />
<glyph unicode="g" horiz-adv-x="616" d="M-48 -576q8 8 16 8q9 4 20 4q36 0 88 -40q68 -52 92 -52q32 0 68 164q36 156 36 316q0 128 -12 168q-20 40 -68 56q-64 32 -104 92t-40 128t128 180q134 116 194 116q18 0 30 -12q64 -72 64 -568q0 -336 -8 -440t-56 -216q-64 -152 -120 -212t-120 -60q-96 0 -176 160 q-58 96 -58 152q0 37 26 56zM208 208h8q8 -8 40 -16h16h24q8 0 24 8l16 8l32 40v64v16v24q0 39 -24 39q-10 0 -24 -7q-32 -32 -64 -32l-32 -16q-16 -32 -16 -64q-8 -24 -8 -40t8 -24z" />
<glyph unicode="h" horiz-adv-x="720" d="M92 92q-1 39 -1 106q0 135 5 386q40 1656 88 1752q26 46 55 46q6 0 13 -2q36 -12 44 -572q2 -112 2 -215q0 -411 -26 -673q-13 -148 -13 -238q0 -75 9 -110q20 -76 116 -76q64 0 128 -40q48 -32 80 -180q14 -66 14 -112q0 -58 -22 -84q-28 -34 -68 -34q-17 0 -36 6 q-64 20 -72 84q-10 71 -30 71q-11 0 -26 -23q-16 -32 -32 -96q-24 -112 -76 -148q-22 -15 -47 -15q-33 0 -69 27q-32 24 -36 140z" />
<glyph unicode="i" horiz-adv-x="320" d="M16 864q8 16 12 28q3 9 13 9q3 0 7 -1q16 -4 32 -20t40 -48q57 -62 57 -101q0 -21 -17 -35q-12 -8 -30 -8t-42 8q-48 16 -68 68q-11 29 -11 57q0 22 7 43zM64 144q0 64 4 96t16 68t28 48q10 7 25 7q10 0 23 -3q32 -8 40 -48t8 -136q0 -128 -8 -152t-64 -24t-68 20 q-7 12 -7 54q0 28 3 70z" />
<glyph unicode="j" horiz-adv-x="416" d="M-192 -504q17 46 47 46q27 0 65 -38l32 -32q48 -56 72 -68q8 -4 18 -4q19 0 46 16q92 46 92 258v18q-4 228 -28 460q-14 139 -14 206q0 45 6 58q14 28 51 28h9q44 -12 76 -44t64 -416q13 -168 13 -296q0 -176 -25 -276q-44 -172 -204 -212q-102 -26 -146 -26q-11 0 -18 2 q-36 8 -92 80q-72 102 -72 186q0 28 8 54zM112 912q15 44 43 44q33 0 85 -60q38 -38 38 -82q0 -11 -2 -22q-20 -56 -68 -56t-80 64q-21 43 -21 78q0 18 5 34z" />
<glyph unicode="k" horiz-adv-x="760" d="M120 44q-12 42 -12 107t12 153q88 544 112 1480q16 528 40 568q12 18 42 18q10 0 22 -2q32 0 40 -112t8 -600q-8 -704 -28 -856q-8 -58 -8 -94q0 -58 20 -58q32 0 32 44t72 84q30 18 53 18q8 0 15 -2q28 -8 68 -40l64 -64l-144 -160l80 -176q84 -160 84 -245 q0 -76 -68 -91q-3 -1 -6 -1q-46 0 -106 105q-64 112 -80 112t-48 -60t-72 -120q-40 -52 -88 -68q-14 -3 -26 -3q-58 0 -78 63z" />
<glyph unicode="l" horiz-adv-x="584" d="M212 88q-1 11 -1 28q0 69 13 236q16 240 64 504t48 384q0 128 32 244t64 428q32 376 80 448q50 86 88 86q22 0 40 -30q14 -28 14 -81q0 -65 -22 -167q-48 -232 -84 -544t-52 -520t-32 -248q-32 -72 -48 -432q-16 -272 -48 -356q-23 -61 -76 -61q-20 0 -44 9 q-32 16 -36 72z" />
<glyph unicode="m" horiz-adv-x="1000" d="M112 304q16 288 32 336q15 44 57 44h7q48 -4 96 -60q56 -64 148 -80q31 -5 62 -5q62 0 126 21q55 21 86 21q5 0 10 -1q32 -4 64 -36q64 -64 88 -248q9 -69 9 -119q0 -83 -25 -113q-40 -48 -72 -48t-88 64l-72 64l-56 -72q-48 -56 -60 -56t-76 48q-32 32 -40 64t-8 56v40 t-16 16q-32 0 -48 -112q-24 -88 -76 -124q-28 -19 -54 -19q-23 0 -46 15q-32 16 -44 64q-11 27 -11 98q0 57 7 142z" />
<glyph unicode="n" horiz-adv-x="816" d="M128 360q16 240 32 256q12 23 40 23q11 0 24 -3q48 -12 80 -60l32 -64l88 64q90 70 147 69q35 0 57 -25q60 -76 60 -332q0 -312 -64 -312l-48 24q-48 48 -48 224t-40 184h-4q-38 0 -84 -152q-48 -160 -76 -200t-84 -48q-13 -3 -24 -3q-60 0 -84 71q-11 47 -11 129 q0 66 7 155z" />
<glyph unicode="o" horiz-adv-x="928" d="M112 160q-9 38 -9 79q0 110 65 233q88 168 192 168q56 0 72 32q21 37 66 38q22 0 50 -10q76 -28 156 -124q105 -119 105 -215q0 -7 -1 -13q-8 -100 -136 -220q-80 -88 -128 -108t-144 -20q-144 0 -208 32t-80 128zM332 264q0 -5 -1 -9q0 -48 41 -55q7 -1 16 -1 q42 0 108 33q107 69 107 135q0 33 -27 65q-33 40 -70 40q-53 0 -114 -80q-56 -72 -60 -128z" />
<glyph unicode="p" horiz-adv-x="792" d="M80 -880q24 640 52 932t72 428t140 216q50 44 107 44q16 0 33 -4q76 -16 124 -104q64 -104 64 -176q0 -96 -108 -268q-100 -172 -180 -196q-96 -24 -96 -648q0 -176 -12 -244t-44 -92q-26 -26 -54 -26q-22 0 -46 18q-52 40 -52 120zM336 256q0 -32 32 -32q40 0 92 108 q40 83 40 130q0 15 -4 26q-23 60 -49 60q-29 0 -63 -76q-51 -109 -51 -182q0 -18 3 -34z" />
<glyph unicode="q" horiz-adv-x="744" d="M120 248q0 120 68 232t164 152q32 13 64 13l128 -53q48 -48 56 -168q2 -24 2 -48q0 -96 -26 -192q-5 -18 -5 -60q0 -103 29 -352q40 -348 88 -396q24 -36 59 -36q12 0 25 4q52 16 108 80q48 56 64 60t56 -20q44 -37 44 -111q0 -21 -4 -45q-16 -108 -88 -172 q-48 -40 -88 -44h-11q-46 0 -117 28q-128 32 -184 88t-96 192t-72 432q-16 96 -32 132t-64 36q-64 16 -116 84t-52 164zM320 352q-6 -13 -6 -23q0 -15 14 -25q8 -5 17 -5q18 0 39 21q24 16 24 30t-24 26q-6 2 -13 2z" />
<glyph unicode="r" horiz-adv-x="872" d="M120 568q8 56 48 64q13 7 28 7q40 0 92 -47l80 -72l120 72q112 64 140 72q5 1 10 1q27 0 74 -33q49 -30 48 -75q0 -14 -4 -29q-20 -64 -100 -72q-88 -8 -156 -84t-84 -172q-16 -104 -48 -152q-32 -32 -104 -40q-14 -2 -27 -2q-49 0 -61 26q-16 32 -48 304 q-11 117 -11 181q0 32 3 51z" />
<glyph unicode="s" horiz-adv-x="736" d="M124 132q20 76 132 76q80 0 96 52q4 12 4 26q0 49 -44 130l-56 112l144 128q128 114 168 114q5 0 8 -2q41 -14 41 -69q0 -9 -1 -19q-8 -72 -56 -88q-56 -32 -76 -88q-9 -25 -9 -46q0 -25 13 -42q48 -64 52 -152q0 -10 1 -19q0 -74 -29 -117q-64 -64 -176 -104 q-70 -25 -115 -25q-27 0 -45 9q-59 36 -59 86q0 18 7 38z" />
<glyph unicode="t" horiz-adv-x="704" d="M32 1600q0 48 48 96t112 80q48 16 76 236t44 236q19 26 64 26q11 0 24 -2q16 0 32 -8t20 -24t4 -28t-4 -40t-4 -64t-4 -88q-12 -52 -12 -116q0 -88 16 -104q16 -8 56 -8q9 1 17 1q53 0 87 -45q36 -39 36 -85q0 -15 -4 -31q0 -48 -24 -64t-80 -16q-104 0 -136 -56 q-48 -88 -64 -728v-144q-8 -352 -20 -468q-12 -124 -44 -140q-19 -13 -38 -13l-58 29q-26 13 -26 143q0 33 2 73q8 200 24 408t32 440q11 155 11 252q0 49 -3 84q0 88 -20 104q-13 11 -43 11q-15 0 -33 -3q-48 0 -68 8t-20 48z" />
<glyph unicode="u" horiz-adv-x="808" d="M96 204q-8 66 -8 127t8 117q16 96 32 120q12 18 38 18q8 0 18 -2q40 -8 56 -44q16 -28 32 -156q16 -192 56 -192t72 48t52 112t56 120t76 56q80 0 104 -64q8 -32 8 -86t-8 -130q-16 -128 -32 -156t-64 -28q-80 0 -176 -64q-51 -38 -115 -38q-16 0 -33 2q-84 12 -124 60 q-32 48 -48 180z" />
<glyph unicode="v" horiz-adv-x="776" d="M128 544q14 14 35 14q26 0 61 -22q64 -40 64 -104t28 -112q19 -32 39 -32q10 0 21 8q32 24 56 120q32 160 104 176q4 1 9 1q35 0 63 -57q21 -55 21 -72q0 -3 -1 -4q-4 -12 -28 -56t-24 -124q0 -104 -96 -200q-68 -68 -104 -68h-4q-36 4 -132 84q-64 56 -108 236 q-19 95 -19 149q0 48 15 63z" />
<glyph unicode="w" horiz-adv-x="1128" d="M96 512q12 12 29 12q27 0 67 -32q64 -52 80 -140q19 -76 49 -76q33 0 79 92q40 96 108 96t124 -80q50 -65 91 -64h9q44 8 44 96q8 112 104 192q34 27 59 27q35 0 53 -51q3 -6 3 -20q0 -53 -51 -216q-64 -204 -104 -252q-37 -44 -135 -44h-17h-17q-97 0 -111 44 q-21 49 -45 49q-31 0 -67 -81q-32 -64 -88 -92q-23 -12 -45 -12q-31 0 -59 24q-40 32 -120 256q-53 149 -53 220q0 36 13 52z" />
<glyph unicode="x" horiz-adv-x="816" d="M96 164q8 28 64 76l80 88l-64 136q-51 102 -51 154q0 13 3 22q8 32 20 44q6 6 15 6t21 -6q24 -12 48 -36t56 -72l96 -112l120 96q96 88 140 96q44 0 68 -48q3 -7 3 -15q0 -50 -123 -153l-144 -128l80 -72q64 -72 64 -184q0 -104 -64 -120q-7 -1 -14 -1q-31 0 -54 29 q-28 36 -76 164l-20 40t-16 0t-60 -48q-64 -56 -96 -60h-5q-31 0 -75 44q-18 24 -18 46q0 7 2 14z" />
<glyph unicode="y" horiz-adv-x="728" d="M-488 -912q-1 6 -1 12q0 36 41 84q152 192 240 296q192 232 296 368l120 168l-48 120l-16 32l-16 24l-16 32q-8 0 -40 80q-24 32 -24 64t24 48t72 16q64 0 104 -96q32 -64 56 -80q16 0 64 32q80 64 128 164q56 100 112 100q64 0 64 -96v-4v-12q0 -88 -208 -376 q-176 -224 -496 -608q-256 -304 -280 -384q-24 -64 -72 -80q-48 0 -96 72q-8 8 -8 24zM8 176q0 32 32 32t32 -32t-32 -32t-32 32z" />
<glyph unicode="z" horiz-adv-x="968" d="M112 496q-29 26 -29 49q0 43 93 79q48 16 136 32q160 32 208 40q10 2 20 2q40 0 84 -26q60 -30 60 -81v-7q-4 -56 -76 -184q-80 -144 -80 -176t124 -32q116 0 180 -64q36 -39 36 -65q0 -38 -76 -47q-72 -8 -232 -8l-272 8l-8 128q-3 27 -3 48q0 44 11 68q16 36 80 92 q82 82 82 118q0 6 -2 10q-8 16 -44 16t-100 -16q-69 -21 -102 -21q-6 0 -10 1q-32 4 -80 36z" />
<glyph unicode="{" horiz-adv-x="824" d="M48 72q16 240 80 376q48 112 64 256q8 176 -48 208q-72 64 -24 304q8 48 88 216q96 176 112 252t0 348q-16 608 128 776q40 48 92 124t84 120t40 44q16 -8 80 -88q48 -64 44 -80t-68 -64q-128 -112 -172 -288q-36 -176 -36 -560q0 -288 -16 -372t-88 -220 q-48 -112 -60 -152t-4 -56t32 -184t24 -280q16 -136 0 -204t-64 -180q-64 -160 -96 -256q-48 -152 -24 -204t152 -52q112 0 160 -48q32 -32 36 -52t-20 -60q-64 -112 -296 -32q-144 48 -180 128t-20 280z" />
<glyph unicode="|" horiz-adv-x="400" d="M48 408q48 728 48 792q0 72 40 904q16 392 36 704t52 344q24 32 68 40t60 -32q16 -16 -28 -516t-92 -828q-32 -232 -44 -872t-20 -960t-40 -320q-16 0 -40 20t-32 52q-40 128 -8 672z" />
<glyph unicode="}" horiz-adv-x="744" d="M40 -216q-8 80 120 224q256 312 112 520q-48 64 -64 104q-16 56 0 136q48 432 64 448q80 120 96 128q48 40 72 96q24 64 -8 96q-112 160 -136 216t-8 200q16 128 64 264t48 360q0 184 -8 228t-88 108q-104 80 -104 120q0 72 120 40q96 -16 160 -96q64 -72 84 -132 t36 -236q16 -160 8 -240q-8 -64 -56 -192q-64 -168 -64 -296q0 -96 36 -160t80 -92t76 -84t24 -136q-8 -112 -88 -152q-136 -64 -180 -332t36 -396q96 -168 4 -412t-284 -340q-152 -80 -152 8z" />
<glyph unicode="~" horiz-adv-x="1064" d="M48 1280q24 32 152 144q112 80 156 100q44 28 108 12q96 -16 128 -48q64 -48 116 -56t88 16t68 48t56 36q24 20 56 -12q56 -48 44 -124q-12 -68 -76 -132q-160 -128 -400 24q-64 32 -96 28t-112 -68q-104 -64 -160 -76q-56 -20 -104 28t-24 80z" />
<glyph unicode="&#xa2;" horiz-adv-x="824" d="M52 960q-28 72 8 176q36 96 132 208q64 64 76 112t0 80t28 112q88 160 280 56q48 -32 48 -80t-8 -96q-8 -40 40 -104q48 -48 32 -104t-80 -56q-48 0 -76 -80t-36 -160l-8 -80q8 0 88 24t148 24t68 -64q0 -48 -92 -112t-164 -64q-48 0 -52 -20t4 -92q32 -144 -40 -144 q-56 0 -96 88q-16 8 -16 40q0 24 -36 68t-84 60q-48 32 -92 84t-72 124z" />
<glyph unicode="&#xa3;" horiz-adv-x="1568" d="M44 248q20 104 148 184q64 40 96 48q32 0 72 -16q48 -32 80 -32t52 24t36 56t48 104t64 136q48 80 64 200q16 72 8 96t-56 56q-64 32 -112 16t-88 48t-8 120q16 32 88 36t168 -28q40 -16 76 48t68 176t72 232t92 244t116 196q184 216 312 48q96 -128 80 -256 q0 -64 -32 -64q-16 0 -40 24t-24 56q-8 72 -56 84q-40 12 -104 -36q-48 -48 -160 -352t-88 -328q16 -16 132 -12t148 -44q48 -64 16 -104t-128 -40t-200 -76t-104 -148q0 -48 -32 -128l-96 -240q-64 -176 -64 -224t100 -96q108 -48 220 -48t200 68q88 76 88 156q0 32 16 64 t44 48q20 16 36 0q32 -32 24 -156q-8 -116 -56 -196q-64 -112 -268 -140q-196 -36 -420 44q-112 40 -144 36t-96 -68q-160 -160 -312 -16q-96 96 -76 200zM256 160q16 -16 48 8t32 64t-32 40q-24 0 -44 -48t-4 -64z" />
<glyph unicode="&#xa7;" horiz-adv-x="40" />
<glyph unicode="&#xab;" horiz-adv-x="1504" d="M40 848q-8 48 336 440t392 376q168 -32 -152 -352q-224 -224 -196 -252q28 -36 84 -4q280 144 344 40q16 -32 16 -72q0 -32 -32 -48t-96 -24q-96 -8 -276 -60q-172 -52 -220 -84t-120 -20t-80 60zM896 1216q0 80 176 256q128 128 172 144t84 -48q24 -32 4 -64t-92 -96 q-120 -112 -120 -128t160 -16q128 0 172 -40t-12 -104q-32 -48 -256 -40q-192 8 -240 32t-48 104z" />
<glyph unicode="&#xad;" d="M48 1272q24 48 104 56q88 16 296 16q152 0 180 -12t28 -72t-40 -72q-40 -20 -232 -36q-160 -16 -224 -8t-88 32q-48 48 -24 96z" />
<glyph unicode="&#xbb;" horiz-adv-x="1256" d="M88 632q-136 40 88 328q120 160 156 216t36 88t-56 88q-80 88 -132 196t-36 148q32 80 128 0q96 -64 128 -176q16 -64 128 -112q96 -32 116 -72t-8 -100q-28 -68 -140 -180q-176 -208 -176 -232q0 -32 -104 -116t-128 -76zM536 752q24 48 72 112q320 400 320 480 q0 32 -36 60q-44 36 -140 68t-124 88t12 104l24 24t20 16t16 4t28 -8t40 -20t56 -32t88 -40q80 -32 192 -132t112 -124q0 -16 -24 -40t-112 -132t-216 -268q-208 -272 -272 -272q-112 0 -56 112z" />
<glyph unicode="&#xbf;" horiz-adv-x="1000" d="M48 632q16 184 88 328t160 224t176 156t144 176t56 228t48 160q96 96 128 -40q32 -144 -32 -384q-32 -104 -64 -160t-96 -104q-208 -160 -300 -272q-100 -112 -116 -232q-24 -160 8 -304q16 -112 40 -128t112 -16q176 0 176 -96q0 -88 -96 -136q-144 -64 -288 80 q-96 112 -128 224t-16 296zM760 2448q8 0 16 16q64 80 144 32t24 -136q-64 -104 -144 -40q-64 56 -40 128z" />
<glyph unicode="&#xc0;" horiz-adv-x="1152" d="M40 960q0 96 96 352q80 224 196 648t148 616q24 120 88 208q64 80 100 68t36 -108q0 -64 80 -376t96 -448q24 -168 92 -388t116 -356q32 -64 32 -92t-48 -60q-72 -64 -116 -24t-76 232q-32 144 -48 192t-80 64q-72 32 -172 -8t-124 8q-40 40 -72 -16q-32 -64 -144 -480 q-16 -48 -32 -76q-16 -36 -64 -36q-96 -16 -104 80zM428 1708q12 -28 56 -20t96 12q44 12 92 -20q48 -48 84 -12t0 104t-36 180t-48 224q-64 144 -88 88q-8 -24 -24 -120q-48 -208 -96 -312q-48 -96 -36 -124zM584 3256q-24 8 8 16h16q40 0 40 -16q-16 -16 -64 0z" />
<glyph unicode="&#xc1;" horiz-adv-x="944" d="M40 624q0 16 12 40t24 56t32 100t44 152t60 212t76 288q32 160 128 508t128 492q32 168 64 216q96 112 128 -16q24 -80 0 -240q-24 -208 36 -800t124 -752q24 -64 4 -112t-52 -48t-112 96t-112 168q-16 48 -76 52t-92 36t-68 8t-36 -88q0 -192 -136 -360 q-88 -120 -152 -56q-16 16 -20 24t-4 24zM448 1280q0 -8 52 -4t96 32t44 68q0 16 -16 160t-28 240t-28 96t-76 -288t-44 -304zM524 3080q-20 56 12 120q16 48 52 64t116 16q128 0 128 -32q0 -40 -100 -132q-92 -92 -140 -92t-68 56z" />
<glyph unicode="&#xc2;" horiz-adv-x="1072" d="M44 540q-12 44 12 160t60 244t88 348q52 228 100 436q48 272 116 552t92 304q32 32 32 132t40 140t60 36q12 -4 60 -52q48 -56 48 -184q0 -160 120 -728t120 -680q0 -64 12 -112t20 -64t4 -32t-36 -48q-48 -48 -68 -48t-52 48q-40 64 -40 128q0 88 -60 136t-128 60 t-124 44t-56 96q0 48 24 64t136 32h24q104 16 112 48q16 48 -40 352q-16 48 -16 80q-16 88 -32 156t-28 112q-12 36 -20 36q-32 0 -104 -304l-152 -624q-80 -320 -96 -512q-16 -144 -76 -272q-52 -128 -100 -128q-40 0 -52 44zM328 2960q-104 80 40 224q88 96 192 96h112 l-96 -160q-88 -128 -144 -164q-56 -28 -104 4zM736 3280h88q88 0 128 -40t40 -144q0 -152 -64 -136t-144 192z" />
<glyph unicode="&#xc4;" horiz-adv-x="872" d="M44 2960q-12 72 20 104t92 12t68 -68q8 -64 -36 -112t-100 -24q-32 16 -44 88zM80 1024q0 48 16 120q64 288 172 796t124 620q48 312 160 360q88 32 120 -112q16 -56 8 -152q0 -144 36 -648t36 -584q0 -64 16 -132t40 -96t28 -72q12 -36 -20 -68q-48 -48 -112 -48 q-64 8 -80 108t-40 208t-88 140q-80 32 -120 -4t-56 -156q-48 -344 -144 -376t-96 96zM384 1736l64 -72q104 -96 120 32q8 80 -8 264q-24 288 -44 292t-76 -252zM608 3080q-24 40 32 104q64 64 124 56t60 -88q0 -48 -20 -68q-20 -28 -76 -28q-96 -16 -120 24z" />
<glyph unicode="&#xc7;" horiz-adv-x="1504" d="M40 1664q0 48 24 152t84 256t140 296t224 264t312 176t256 48t232 -88q96 -48 128 -80t32 -80q0 -88 -64 -92t-160 68q-64 48 -112 60t-112 4q-240 -48 -424 -220t-288 -444q-56 -152 -68 -228t4 -292q16 -240 68 -364t164 -228q112 -96 304 -68t256 140q40 64 112 60 t104 -68q24 -40 16 -68q-8 -20 -48 -68q-72 -80 -184 -128q-168 -56 -56 -96q56 -16 104 -192l56 -192l-136 -120q-96 -96 -228 -148t-172 -12q-32 32 -16 120q8 56 28 76t84 36q112 16 160 80q32 48 16 72t-44 32t-72 48t-64 120t-40 104t-84 24q-96 0 -248 152t-184 280 q-32 144 -68 340t-36 268z" />
<glyph unicode="&#xc8;" horiz-adv-x="1008" d="M40 704l8 384q16 320 36 632t32 472t20 304t0 208t-40 96q-80 96 48 128q64 32 184 48q48 8 100 20t68 12t40 4t28 4t24 -4t28 -12t28 -16t44 -20t68 -28t108 -32q88 -24 104 -88q24 -64 -40 -112q-32 -32 -60 -32q-20 0 -84 40q-96 48 -160 44t-176 -68 q-96 -56 -128 -112q-40 -96 -80 -640v-120q-24 -376 -16 -720q16 -344 48 -344q24 0 144 48l200 80q64 32 124 8t60 -88q0 -32 -8 -48t-40 -16t-72 -8t-112 -32t-152 -72l-192 -104zM312 3264q8 16 96 16q80 0 100 -16t4 -64q-8 -64 -68 -64t-108 64q-32 48 -24 64z M320 1820q16 44 80 60q112 16 152 12t72 -36t24 -56t-56 -64q-64 -48 -144 -52t-112 44t-16 92z" />
<glyph unicode="&#xc9;" horiz-adv-x="936" d="M40 792l8 1016q0 1024 40 1048q32 32 280 40t272 32q32 32 72 24t72 -64q48 -96 -48 -132t-248 -52t-176 -40q-48 -32 -80 -236t-24 -412l8 -256h120q112 16 152 -32q48 -48 4 -96t-156 -64q-80 0 -104 -16t-24 -96q-16 -112 32 -336l48 -224l176 8q176 8 208 40 q48 40 132 24q76 -16 92 -72q32 -144 -304 -144q-136 0 -220 -28t-108 -48t-56 -16q-32 12 -80 60z" />
<glyph unicode="&#xca;" horiz-adv-x="1000" d="M64 3008q-72 32 32 192q32 48 72 64t136 16h144l-144 -152q-152 -160 -240 -120zM160 1152q-8 128 28 416t44 656q16 352 28 424t60 80q32 8 104 56t136 96t144 96t136 48t104 -56q32 -48 8 -100t-88 -68q-128 -16 -184 -48t-152 -144l-128 -160l-48 -528 q-80 -920 -16 -1136q16 -32 20 -48t40 -20t76 8t152 36q144 40 200 32t48 -88q0 -40 -40 -60t-92 -24t-108 -24t-104 -52q-64 -48 -128 -48q-48 0 -80 -32t-80 -32t-56 48t-16 256q0 240 -8 416zM412 1708q-44 68 68 172q16 16 40 32q112 80 196 76t84 -84q0 -32 -16 -56 t-36 -32t-68 -32t-96 -56q-128 -88 -172 -20zM768 3264q16 16 80 16t76 -16t-16 -32t-60 -16t-64 16t-16 32z" />
<glyph unicode="&#xcb;" horiz-adv-x="1184" d="M40 784l24 296q24 288 36 744t28 716t48 308q32 32 56 32t64 -24t80 -20t136 52q304 136 336 -24q16 -88 -36 -124t-148 -20q-72 8 -120 -4t-128 -76l-136 -96l-8 -320q-8 -312 8 -336q16 -16 132 32t164 16q104 -80 0 -160q-80 -64 -240 -64q-64 0 -80 -32t-32 -240 q-16 -272 0 -416l32 -160l208 -16q144 -8 240 20t256 124q64 40 80 40t64 -40q40 -40 44 -60t-20 -52q-88 -96 -616 -168q-200 -24 -264 -24t-120 48zM60 3176q-4 24 20 56q48 48 96 36t64 -76q8 -64 -44 -92t-100 20q-32 32 -36 56zM592 3216q0 32 16 48t64 16 q80 0 100 -36t-28 -88t-100 -28t-52 88z" />
<glyph unicode="&#xce;" horiz-adv-x="896" d="M40 2904q16 40 120 72q48 16 104 24t84 4t128 -16t148 -28q192 -16 224 -88q16 -48 -64 -72q-16 -8 -40 -8q-32 -8 -44 -24t-28 -84t-32 -168t-32 -316q-32 -320 -16 -840l16 -512l80 16q64 16 120 -20q56 -44 56 -108q0 -40 -24 -56t-72 -24t-108 -12t-168 -12t-220 -24 q-80 -16 -104 -8t-48 64q-24 48 -20 84t36 84q40 64 100 72q52 8 100 -40q32 -32 64 0q16 16 40 384t32 868t8 540l16 160l-224 16q-240 16 -232 72zM512 3192q0 64 16 76t128 12q128 0 136 -24t-72 -104q-72 -72 -132 -60t-76 100z" />
<glyph unicode="&#xcf;" horiz-adv-x="1088" d="M52 2688q20 32 172 96q48 24 176 48t264 24q136 8 168 -40q96 -128 -128 -144h-96q-240 0 -320 -48q-120 -64 -148 -72t-60 40q-48 64 -28 96zM96 304q0 48 64 88l128 80t64 72q-8 56 20 180t44 124t8 256t16 256q16 0 16 272t4 572t20 340q32 56 80 60t64 -44 q16 -32 -4 -444t-52 -912t-32 -548q0 -72 8 -92q16 -20 64 -20q88 8 140 -28t52 -100q0 -40 -28 -52t-84 -12q-112 0 -236 -32q-116 -32 -180 -80t-120 -28q-56 28 -56 92zM312 3256q24 24 56 16t88 -56t48 -104t-64 -56q-32 0 -92 88t-36 112zM512 2384q0 -32 32 -32t32 32 t-32 32t-32 -32zM848 3248q16 32 120 32q48 0 68 -16t20 -48q-16 -48 -72 -64q-48 -8 -100 28t-36 68z" />
<glyph unicode="&#xd1;" horiz-adv-x="1408" d="M56 400q-32 80 0 192q16 64 8 136t24 280q16 112 44 528t60 728t80 328t108 -44t76 -156q16 -64 44 -132t64 -132t84 -240t96 -416q40 -224 88 -368q48 -176 96 -160q24 0 24 80q0 88 48 248q48 192 128 1224q8 120 40 216q24 64 40 68t48 -20q48 -48 16 -144 q-16 -56 -44 -628q-28 -580 -60 -788q-48 -288 -32 -432q16 -112 -16 -176t-96 -64q-80 0 -232 296t-184 520q-48 320 -128 568t-128 248q-16 0 -24 -44t-16 -148t-16 -200t-24 -292t-32 -324q-32 -352 -16 -664q0 -104 -8 -124q-8 -28 -56 -28q-72 -16 -104 64zM128 3096 q16 48 148 52t204 68q48 40 128 48h352t340 -8t68 -48q0 -104 -124 -152t-236 0t-176 52t-100 -16t-64 -44t-108 -48t-192 -24q-152 0 -204 32t-36 88z" />
<glyph unicode="&#xd3;" horiz-adv-x="824" d="M40 1040q0 248 28 528t80 564t164 476t264 192q128 0 168 -136t48 -552q8 -568 -68 -940q-68 -372 -212 -468q-80 -56 -196 -52t-188 68q-48 48 -68 104t-20 216zM236 968q4 -72 52 -80q56 -24 132 56t92 192t48 200t52 144t36 208t16 408q0 472 -40 520q-80 96 -112 8 l-80 -208q-64 -176 -92 -272t-48 -200t-20 -152t-8 -200t-16 -280q-16 -272 -12 -344zM432 3232q0 48 112 48h120l-64 -64q-56 -56 -112 -52t-56 68z" />
<glyph unicode="&#xd4;" horiz-adv-x="920" d="M48 1180q0 292 96 836q32 184 72 284t56 180q16 96 80 208t128 96q48 -16 104 -16q48 0 92 -68t84 -236q88 -312 112 -500t0 -380q-40 -320 -64 -432t-88 -288q-80 -200 -160 -272q-80 -80 -208 -64q-96 0 -128 32t-80 144q-96 192 -96 476zM184 2960q-16 32 0 68t96 116 q80 88 124 112t132 24q112 0 160 -36q48 -44 48 -124q0 -72 -52 -84t-116 36q-48 40 -68 32q-28 -8 -108 -96q-88 -96 -132 -104t-84 56zM228 1268q-4 -316 44 -412q48 -104 96 -128q48 -32 120 92t136 340t96 456q24 208 20 296t-60 280q-72 272 -88 360q-16 104 -56 88 q-16 0 -24 -32q-16 -32 -104 -320t-120 -464q-56 -240 -60 -556z" />
<glyph unicode="&#xd6;" horiz-adv-x="904" d="M48 1540q32 396 112 668l24 88t48 160t56 160t72 136t88 32t88 -16t144 -176q200 -336 152 -1088q-24 -336 -64 -488q-48 -152 -144 -264q-80 -88 -160 -100t-144 20t-120 92t-88 112t-48 100q-48 168 -16 564zM168 3064q-16 72 48 104q24 8 56 8q64 -8 68 -88t-68 -96 q-88 -16 -104 72zM224 1568q-32 -320 16 -504t168 -184q64 0 124 80t92 232q80 416 76 764t-88 484t-132 80q-48 -40 -112 -280q-112 -352 -144 -672zM648 3240q0 32 28 36t68 -12t72 -40q64 -56 56 -96t-80 -40q-56 0 -100 48t-44 104z" />
<glyph unicode="&#xd9;" horiz-adv-x="1248" d="M48 1904q-32 720 104 880q48 48 68 64t52 -8q40 -40 -8 -264q-40 -224 -40 -624t56 -560q96 -272 176 -416q24 -48 152 -48q72 0 108 20q36 12 100 92q112 128 152 380t48 788q0 616 24 648q32 40 64 8q16 -32 64 -112q32 -64 36 -88t8 -84t-4 -120t-16 -228t-8 -376 q-8 -448 -52 -624t-156 -304q-176 -176 -400 -176q-96 0 -136 16t-104 88q-136 152 -204 400t-84 648zM344 3280h104q112 0 240 -128q104 -96 112 -120t-32 -64t-76 -24t-164 144z" />
<glyph unicode="&#xda;" horiz-adv-x="1080" d="M48 1536q40 840 60 1020t60 228q160 200 56 -704q-32 -256 -32 -664v-408l112 -112q64 -80 104 -96t104 0q72 16 116 40t84 80t64 128t40 212t24 304t8 436q16 752 48 776t88 16q32 -8 48 -136q8 -136 8 -752v-880l-88 -72q-88 -72 -40 -72q128 0 -16 -88 q-48 -32 -144 -80q-184 -88 -288 -80t-240 120q-120 96 -156 264t-20 520zM496 3232q16 48 192 48t176 -16t-112 -80q-176 -112 -240 -48q-32 32 -16 96z" />
<glyph unicode="&#xdb;" horiz-adv-x="1240" d="M48 1984q-24 720 8 736q32 40 76 44t60 -36t32 -744q8 -512 36 -740q28 -236 100 -396q32 -96 92 -100t188 60q112 48 156 100t92 196q120 352 136 1072q8 496 28 516q20 28 84 -36q48 -48 56 -128t0 -416q-16 -368 -44 -628t-64 -400t-96 -232t-92 -120t-96 -60 q-16 -8 -32 -8q-192 -104 -312 -104t-216 96t-96 176q0 56 -48 204t-40 188q16 40 -8 760zM436 3148q4 60 36 92q40 40 168 40h112l-64 -96q-48 -64 -120 -100t-104 -12q-32 16 -28 76zM872 3200q-8 48 4 64q4 16 68 16q80 0 108 -72q20 -72 -28 -120t-92 -12t-60 124z" />
<glyph unicode="&#xdc;" horiz-adv-x="1320" d="M40 2768l8 48q16 40 64 44t80 -40q32 -36 48 -708q16 -560 48 -752t112 -344q56 -96 92 -116t116 -20t132 24t80 88t48 128t48 172q28 116 60 196q112 288 136 920q8 400 72 416q16 8 48 -24q80 -64 48 -516q-32 -444 -144 -956q-56 -256 -88 -332t-120 -156 q-80 -64 -136 -100t-128 -52t-88 -16q-48 -16 -184 96t-168 208q-72 184 -100 388t-36 604q0 216 -12 384t-20 236t-8 124zM392 3184q0 64 12 80t92 16q96 0 104 -16t-24 -96q-32 -96 -100 -88t-84 104zM864 3232q0 48 112 48q72 0 92 -16t20 -64q0 -128 -96 -96 q-88 32 -120 104q-8 8 -8 24z" />
<glyph unicode="&#xdf;" horiz-adv-x="2160" d="M40 -168q0 64 60 92t140 4q64 -24 96 -24t72 40q128 96 212 300t124 404t84 452q36 260 84 388q48 144 64 200q0 48 76 236q68 188 84 260q32 152 200 348t296 228q104 32 172 28t164 -36q104 -40 128 -96t24 -224q0 -144 -52 -236t-212 -188l-128 -88l96 -80 q160 -176 144 -672q-8 -272 -60 -380t-196 -172q-136 -48 -236 -44t-172 64t-112 120t-40 108q-16 64 -4 92q20 36 68 68q56 32 76 32t52 -32t36 -56t-20 -56q-32 -64 -32 -80t56 -48q80 -48 204 -4t164 128t48 288t-40 324q-32 96 -100 176t-140 112q-64 24 -72 108t56 100 q32 16 116 76q92 60 156 76q160 32 168 296q8 128 -44 172q-44 44 -172 20q-80 -16 -180 -100t-100 -132q-8 -24 -56 -72q-32 -32 -84 -144t-52 -168q0 -24 -28 -88t-68 -184t-80 -248q-16 -96 -60 -248t-68 -240t-48 -256t-40 -376q-24 -208 -184 -436q-168 -228 -312 -252 q-96 -16 -212 24t-116 96z" />
<glyph unicode="&#xe0;" horiz-adv-x="704" d="M44 2008q20 56 68 52t96 -60q48 -64 128 -80q64 -8 68 -84t-68 -92q-64 -8 -188 100t-104 164zM104 736q-16 120 44 264t156 200q176 112 256 32t96 -368q16 -224 -16 -280t-136 0q-64 32 -232 48q-112 0 -136 16q-24 8 -32 88zM272 792q8 -16 12 -28t16 -8t24 20t44 48 q80 88 80 168q0 72 -16 72t-96 -104q-88 -112 -64 -168z" />
<glyph unicode="&#xe1;" horiz-adv-x="520" d="M44 812q-4 68 84 212q48 88 80 116t80 20q72 -8 124 -88t60 -176t8 -184t-16 -120q-32 -64 -104 -64t-88 64q-8 32 -44 64t-84 48q-96 40 -100 108zM140 1532q4 44 60 140q64 104 136 88q80 -8 76 -76t-84 -164q-56 -64 -84 -80t-60 8q-48 40 -44 84z" />
<glyph unicode="&#xe2;" horiz-adv-x="824" d="M104 2088q32 40 80 88q168 160 200 224q40 80 100 68q60 -20 108 -116q48 -120 128 -200q64 -72 64 -136t-72 -80q-48 0 -100 52t-92 124t-64 88t-136 -132t-192 -148q-160 0 -24 168zM136 864q-16 80 72 208t184 168q104 48 192 52t120 -44q16 -24 24 -108t8 -188v-136 q16 -80 -48 -112q-32 -24 -64 -4t-56 56t-56 56t-72 4q-48 -32 -176 -32q-72 8 -96 24q-24 8 -32 56z" />
<glyph unicode="&#xe4;" horiz-adv-x="808" d="M48 1784q16 56 96 40q88 -24 108 -60t-12 -84q-48 -88 -136 -40t-56 144zM160 800q-24 72 32 196t152 204q144 112 272 48q112 -48 72 -160q0 -16 -16 -32q-32 -64 -16 -224q32 -232 32 -292t-48 -60q-64 0 -112 144l-64 192q-16 32 -36 12t-56 -48t-68 -60t-72 -12 q-40 12 -72 92zM560 1808q-112 96 48 168q80 48 112 36t48 -76q8 -64 -68 -120t-140 -8z" />
<glyph unicode="&#xe7;" horiz-adv-x="712" d="M44 932q-20 60 20 156t152 232t200 136q136 0 160 -80t-96 -128q-128 -48 -196 -148q-76 -100 -12 -156q80 -80 224 48q56 48 80 60q24 20 56 -12q64 -48 36 -136t-124 -136q-88 -48 -116 -88t28 -72q32 -16 32 -176q0 -104 -20 -148t-92 -108q-104 -88 -136 -92t-88 60 q-48 56 -36 108t76 52t104 48q32 48 20 64t-52 72t-40 120t-36 120t-80 100t-64 104z" />
<glyph unicode="&#xe8;" horiz-adv-x="800" d="M40 1864q-8 16 24 48q40 48 76 48t148 -56q128 -64 180 -128q44 -64 12 -112t-72 -44t-72 32t-64 60t-64 32q-40 0 -112 64q-48 40 -56 56zM80 904q-48 320 288 496q104 48 148 40q44 0 140 -112q120 -128 108 -200t-140 -96q-128 -16 -248 -72q-112 -48 -108 -96 t100 -128q64 -48 104 -48t216 80q32 16 40 4q8 -4 8 -52q-8 -72 -128 -140t-208 -44q-96 24 -196 144t-124 224z" />
<glyph unicode="&#xe9;" horiz-adv-x="728" d="M56 968q40 104 100 196t116 132q112 80 188 64q68 -16 148 -136q96 -136 80 -184t-160 -48q-256 0 -320 -112q-32 -48 0 -80q48 -48 152 -48t152 64q64 80 92 40t-36 -128t-132 -112t-164 8q-160 48 -208 144t-8 200zM272 1824q32 48 80 96q160 168 200 64 q16 -48 -76 -160t-156 -112q-112 0 -48 112z" />
<glyph unicode="&#xea;" horiz-adv-x="776" d="M44 1528q4 40 44 104t84 120t84 104t40 64q0 32 36 72t52 40q56 0 208 -272q48 -96 64 -136t-8 -88q-64 -160 -168 64l-64 120l-136 -136q-144 -144 -192 -120t-44 64zM56 640q48 208 188 368t276 144q64 -16 124 -84t68 -124q0 -64 -68 -112t-148 -48q-272 0 -272 -144 q0 -88 60 -100t228 52q208 64 224 48v-48q0 -64 -144 -128t-304 -64q-96 0 -136 12q-40 20 -64 68q-48 64 -32 160z" />
<glyph unicode="&#xeb;" horiz-adv-x="904" d="M40 872q0 40 84 188t204 288t184 140t168 -96t88 -144t-176 -128t-224 -80t-104 -52q-40 -60 -24 -124q8 -48 40 -56q40 -8 184 -8q120 0 160 -8t40 -40t-48 -44q-48 -20 -176 -20q-144 -8 -204 4t-108 60q-88 64 -88 120zM200 1984q0 48 12 64t44 8q56 -16 84 -68 t-4 -92q-48 -40 -92 -8t-44 96zM592 1976q-16 56 16 88q16 16 116 4t128 -40t-28 -100q-40 -32 -72 -40q-32 0 -80 16q-64 16 -80 72z" />
<glyph unicode="&#xee;" horiz-adv-x="648" d="M40 476q-8 36 8 164q16 192 40 224q72 64 120 0q32 -48 -8 -240q-24 -128 -40 -160t-64 -32q-48 8 -56 44zM60 1216q4 64 100 112t192 120q96 64 176 60t80 -84q0 -56 -48 -96q-48 -32 -232 -144q-96 -48 -176 -48q-96 16 -92 80z" />
<glyph unicode="&#xef;" horiz-adv-x="672" d="M40 1440q0 16 40 64t100 80t108 0q32 -16 56 -12t40 44q32 48 92 56t112 -28t52 -96t-84 -112t-128 -16t-92 4q-40 -32 -164 -28q-124 12 -132 44zM268 736q4 176 52 264q32 72 16 104q-32 48 4 104t108 -24q32 -48 16 -352q-24 -336 -96 -336q-32 0 -64 32 q-40 32 -36 208z" />
<glyph unicode="&#xf3;" horiz-adv-x="608" d="M44 544q4 96 32 200t96 184t164 80q104 0 144 -40t36 -164q-4 -132 -36 -228q-48 -128 -196 -184t-212 24q-32 32 -28 128zM184 1360q-8 16 32 72t104 120q176 176 232 144q64 -32 -80 -224l-16 -16q-80 -96 -160 -124t-112 28zM224 616q16 -16 40 -4t44 52t36 88t12 72 t-36 24q-48 0 -88 -100t-8 -132z" />
<glyph unicode="&#xf4;" horiz-adv-x="728" d="M64 832q16 96 96 188t148 136t76 44q56 0 156 -64t116 -104q8 -48 -96 -232q-80 -136 -112 -156t-136 -20q-160 0 -212 44t-36 164zM96 1648q-112 24 24 216q24 32 56 80q64 72 120 128t88 56q40 0 172 -124q132 -132 132 -164t-40 -64t-72 -32q-16 0 -128 88 q-144 96 -144 -8q0 -48 -80 -112t-128 -64zM216 844q-8 -12 40 -44q64 -48 80 -48q32 0 84 56t60 104q0 56 -32 76t-80 4t-96 -72q-48 -64 -56 -76z" />
<glyph unicode="&#xf6;" horiz-adv-x="712" d="M40 1416q-8 56 72 88q16 16 48 16q64 0 84 -16q28 -16 12 -64q0 -64 -88 -80q-104 -16 -128 56zM168 784q24 96 120 192q128 128 160 128q48 0 88 -88t40 -192q0 -80 -16 -124t-64 -76q-80 -64 -176 -64t-136 64t-16 160zM348 748q36 -28 84 36t40 96q-56 80 -120 -40 q-40 -64 -4 -92zM512 1520q0 48 80 16q96 -32 80 -96q0 -16 -24 -32q-40 -48 -88 16t-48 96z" />
<glyph unicode="&#xf9;" horiz-adv-x="752" d="M48 1952q48 48 88 36q40 -20 184 -132q128 -104 160 -164t-32 -108q-32 -32 -80 12t-80 124q-8 16 -28 36t-52 20q-64 0 -128 72t-32 104zM68 1024q12 96 44 136t80 40q32 0 40 -36t-8 -148q-16 -144 12 -236t84 -92q48 0 104 104t72 224q16 112 64 156t112 -4 q32 -32 40 -80t-8 -192q-16 -192 -48 -248t-96 -40t-160 -56q-64 -48 -96 -52t-96 28q-48 32 -72 76t-48 164q-32 160 -20 256z" />
<glyph unicode="&#xfa;" horiz-adv-x="824" d="M44 944q-12 136 36 184q32 32 56 32t64 -40q32 -32 20 -124q-12 -84 20 -132t56 -48t80 40q48 32 80 92t36 108t28 80t72 24t64 -40t16 -144q8 -144 -24 -208q-40 -64 -120 -40q-72 24 -168 -24q-72 -40 -116 -32q-52 0 -132 80q-56 56 -68 192zM336 1704q0 48 32 96 t144 136q152 128 188 144t76 -32q24 -32 0 -64t-88 -100q-64 -76 -112 -156q-80 -144 -176 -144q-64 0 -64 120z" />
<glyph unicode="&#xfb;" horiz-adv-x="928" d="M40 1152q0 184 20 260t84 68q32 -8 44 -56t12 -200q0 -216 52 -320t140 -80q176 48 216 100t72 276q16 136 48 164q40 28 104 -20q32 -32 44 -88t12 -200q0 -320 -96 -304q-16 0 -32 8q-32 24 -160 -56q-176 -96 -284 -76q-108 12 -196 172q-48 72 -64 148t-16 204z M268 2076q12 36 92 116q64 64 116 136t72 100t44 56t44 24q20 -12 52 -28q48 -32 124 -184t76 -208t-20 -72t-60 4t-88 76l-88 112l-128 -144q-96 -112 -144 -120q-40 -8 -88 64q-16 32 -4 68z" />
<glyph unicode="&#xfc;" horiz-adv-x="768" d="M48 768q-16 80 8 120t88 80q64 32 84 4q12 -28 28 -156q16 -288 176 -16q8 16 24 32q96 176 164 168t100 -216q32 -224 -120 -224q-64 0 -192 -64l-120 -72l-96 72q-64 48 -92 92q-28 52 -52 180zM80 1456q48 72 160 -16q48 -40 32 -92t-80 -52q-48 0 -92 60t-20 100z M520 1568q16 40 100 24t100 -64q16 -40 -16 -88t-80 -48q-40 0 -80 64t-24 112z" />
<glyph unicode="&#x2000;" horiz-adv-x="1640" />
<glyph unicode="&#x2001;" horiz-adv-x="3280" />
<glyph unicode="&#x2002;" horiz-adv-x="1640" />
<glyph unicode="&#x2003;" horiz-adv-x="3280" />
<glyph unicode="&#x2004;" horiz-adv-x="1093" />
<glyph unicode="&#x2005;" horiz-adv-x="820" />
<glyph unicode="&#x2006;" horiz-adv-x="546" />
<glyph unicode="&#x2007;" horiz-adv-x="546" />
<glyph unicode="&#x2008;" horiz-adv-x="410" />
<glyph unicode="&#x2009;" horiz-adv-x="656" />
<glyph unicode="&#x200a;" horiz-adv-x="182" />
<glyph unicode="&#x2010;" d="M48 1272q24 48 104 56q88 16 296 16q152 0 180 -12t28 -72t-40 -72q-40 -20 -232 -36q-160 -16 -224 -8t-88 32q-48 48 -24 96z" />
<glyph unicode="&#x2011;" d="M48 1272q24 48 104 56q88 16 296 16q152 0 180 -12t28 -72t-40 -72q-40 -20 -232 -36q-160 -16 -224 -8t-88 32q-48 48 -24 96z" />
<glyph unicode="&#x2012;" d="M48 1272q24 48 104 56q88 16 296 16q152 0 180 -12t28 -72t-40 -72q-40 -20 -232 -36q-160 -16 -224 -8t-88 32q-48 48 -24 96z" />
<glyph unicode="&#x2013;" horiz-adv-x="1104" d="M53 1272q40 48 173 56q146 16 492 16q253 0 299.5 -12t46.5 -72t-66 -72q-67 -20 -386 -36q-266 -16 -372.5 -8t-146.5 32q-80 48 -40 96z" />
<glyph unicode="&#x2014;" horiz-adv-x="2128" d="M66.5 1272q79.5 48 345.5 56q293 16 984 16q506 0 599 -12t93 -72t-133 -72q-133 -20 -771 -36q-532 -16 -745 -8t-293 32q-159 48 -79.5 96z" />
<glyph unicode="&#x201c;" horiz-adv-x="936" d="M40 2932q-8 28 24 76q112 128 168 -80q24 -56 40 -136q16 -144 -32 -184t-96 -4t-48 116q0 48 -24 116t-32 96zM656 3088q16 32 64 24t96 -48q64 -48 80 -188t-32 -172q-32 -32 -68 -12t-36 68t-60 180t-44 148z" />
<glyph unicode="&#x201e;" horiz-adv-x="688" d="M48 912q48 88 136 -32q72 -112 72 -272q0 -64 -20 -120t-48 -72t-60 8q-32 32 -72 236t-8 252zM448 984q56 64 128 -24l16 -32q48 -64 56 -232t-24 -208q-64 -56 -112 56q-16 48 -16 128q-8 144 -40 192q-56 64 -8 120z" />
<glyph unicode="&#x2022;" horiz-adv-x="600" d="M44 1608q-4 200 36 248q32 48 60 48t140 -32q96 -24 188 -124t92 -180q0 -48 -64 -128t-208 -104t-192 24t-52 248z" />
<glyph unicode="&#x202f;" horiz-adv-x="656" />
<glyph unicode="&#x205f;" horiz-adv-x="820" />
<glyph unicode="&#x20ac;" horiz-adv-x="1656" d="M48 1848q32 136 112 152t240 256q112 160 212 252t300 212q72 48 260 40t300 -56q96 -48 128 -104t8 -88q-16 -32 -72 -32q-64 0 -96 32q-8 8 -52 28t-128 24t-180 -12t-220 -92t-220 -212q-128 -160 -128 -192q0 -16 28 -16t80 12t108 28t112 24t104 -8t64 -32t16 -36 t-4 -76q-4 -48 -4 -96q8 -64 -56 -128q-48 -48 -144 -64t-400 -32q-80 0 -104 -24t-48 -136q-72 -320 24 -432q40 -40 84 -52t172 4q96 8 208 28t176 36t128 28t96 -4q32 -8 48 -56t-24 -100t-104 -36q-32 8 -96 -8t-200 -40t-280 -40q-176 -16 -232 -8t-88 48 q-56 64 -84 268t12 332q16 88 12 124t-36 84q-64 64 -32 200zM384 1824q0 -32 32 -40t112 -8q144 16 240 56t96 88t-24 40q-176 -24 -384 -72q-32 -8 -52 -28t-20 -36z" />
<glyph unicode="&#x25fc;" horiz-adv-x="690" d="M0 0v690h690v-690h-690z" />
</font>
</defs>
</svg>
